<svg width="400" height="300" viewBox="0 0 400 300" fill="none" xmlns="http://www.w3.org/2000/svg">
  <rect width="400" height="300" fill="white"/>
  <circle cx="200" cy="150" r="100" fill="#E6F2FF"/>
  <path d="M200 70C156.863 70 122 104.863 122 148C122 191.137 156.863 226 200 226C243.137 226 278 191.137 278 148C278 104.863 243.137 70 200 70ZM200 210C165.757 210 138 182.243 138 148C138 113.757 165.757 86 200 86C234.243 86 262 113.757 262 148C262 182.243 234.243 210 200 210Z" fill="#0066CC"/>
  <path d="M200 102C174.595 102 154 122.595 154 148C154 173.405 174.595 194 200 194C225.405 194 246 173.405 246 148C246 122.595 225.405 102 200 102ZM200 178C183.431 178 170 164.569 170 148C170 131.431 183.431 118 200 118C216.569 118 230 131.431 230 148C230 164.569 216.569 178 200 178Z" fill="#0066CC"/>
  <path d="M200 134C191.163 134 184 141.163 184 150C184 158.837 191.163 166 200 166C208.837 166 216 158.837 216 150C216 141.163 208.837 134 200 134Z" fill="#0066CC"/>
  <path d="M320 110L340 130L320 150" stroke="#0066CC" stroke-width="4" stroke-linecap="round" stroke-linejoin="round"/>
  <path d="M80 110L60 130L80 150" stroke="#0066CC" stroke-width="4" stroke-linecap="round" stroke-linejoin="round"/>
  <path d="M200 40V60" stroke="#0066CC" stroke-width="4" stroke-linecap="round" stroke-linejoin="round"/>
  <path d="M200 240V260" stroke="#0066CC" stroke-width="4" stroke-linecap="round" stroke-linejoin="round"/>
  <path d="M260 90L280 70" stroke="#0066CC" stroke-width="4" stroke-linecap="round" stroke-linejoin="round"/>
  <path d="M120 230L140 210" stroke="#0066CC" stroke-width="4" stroke-linecap="round" stroke-linejoin="round"/>
  <path d="M260 210L280 230" stroke="#0066CC" stroke-width="4" stroke-linecap="round" stroke-linejoin="round"/>
  <path d="M120 70L140 90" stroke="#0066CC" stroke-width="4" stroke-linecap="round" stroke-linejoin="round"/>
</svg>
