<svg xmlns="http://www.w3.org/2000/svg" width="120" height="54" viewBox="0 0 120 54" fill="none"><path d="M24.1397 44.1942C23.9885 44.1942 23.8409 44.1576 23.7044 44.0843C23.5495 44.0037 19.9122 42.0356 16.3892 37.5866C13.1466 33.493 9.39867 26.4345 9.96308 16.0558C9.98153 15.7003 10.2066 15.3888 10.5423 15.2532L23.5384 10.0895C23.7671 9.99791 24.0217 10.0015 24.2467 10.1005L37.5269 15.7919C37.8663 15.9385 38.0839 16.2684 38.0839 16.6349C38.0839 20.2374 37.4162 27.0722 36.9108 28.6225C36.7559 29.1025 36.2358 29.3701 35.7488 29.2125C35.2656 29.0586 35 28.5418 35.1549 28.0581C35.5459 26.8597 36.1657 20.8971 36.2321 17.2359L23.8667 11.9366L11.778 16.7412C11.4792 24.3383 13.5008 30.946 17.7873 36.3882C20.3622 39.6572 23.0441 41.5263 24.1065 42.1896L27.3934 39.9357C27.8139 39.6499 28.3857 39.7525 28.6771 40.1703C28.9649 40.5881 28.8616 41.1561 28.441 41.4456L24.6635 44.033C24.5049 44.1393 24.3205 44.1942 24.1397 44.1942Z" fill="#858585"></path><path d="M23.9927 39.7981C23.8304 39.7981 23.6644 39.7541 23.5205 39.6698C15.9286 35.1658 14.0915 23.7572 14.0178 23.2735C13.9403 22.7751 14.287 22.306 14.7887 22.229C15.2904 22.1521 15.7626 22.4965 15.8401 22.995C15.8549 23.1012 17.537 33.4946 23.9595 37.7751C32.1711 31.7172 32.3297 21.8515 32.2375 19.4584L23.9816 16.0685L14.5785 19.6856C14.1026 19.8689 13.5714 19.6343 13.3869 19.1616C13.2025 18.6888 13.4386 18.1574 13.9145 17.9779L23.6607 14.2251C23.882 14.1408 24.1255 14.1444 24.3468 14.2324L33.477 17.9852C33.7905 18.1134 34.0082 18.403 34.0414 18.7365C34.0967 19.2825 35.3067 32.1643 24.5202 39.6295C24.3616 39.7432 24.1771 39.7981 23.9927 39.7981Z" fill="#EDE9E5"></path><path d="M23.9922 15.082V38.8813C23.9922 38.8813 34.9041 30.6025 33.1223 18.8311C33.1777 17.6694 23.9922 15.082 23.9922 15.082Z" fill="#EDE9E5"></path><path d="M33.1583 41.6561C36.8011 41.6561 39.7542 38.7224 39.7542 35.1035C39.7542 31.4845 36.8011 28.5508 33.1583 28.5508C29.5156 28.5508 26.5625 31.4845 26.5625 35.1035C26.5625 38.7224 29.5156 41.6561 33.1583 41.6561Z" fill="#32CAA0"></path><path d="M33.528 38.243C33.5169 38.243 33.5059 38.243 33.4948 38.243C33.2218 38.232 32.9673 38.1037 32.7976 37.8875L30.171 34.5232C29.8575 34.1238 29.9313 33.5484 30.3334 33.2369C30.7355 32.9254 31.3146 32.9987 31.6282 33.3981L33.5759 35.8902L38.1761 30.7631C38.5154 30.3857 39.0983 30.3527 39.4783 30.6899C39.8582 31.027 39.8914 31.606 39.552 31.9835L34.2141 37.9352C34.0407 38.1294 33.7899 38.243 33.528 38.243Z" fill="#181818"></path><path d="M105.728 53H13.8106C6.83484 53 1.17969 47.3818 1.17969 40.4517V13.5483C1.17969 6.61815 6.83484 1 13.8106 1H105.732C112.708 1 118.363 6.61815 118.363 13.5483V40.4517C118.359 47.3818 112.704 53 105.728 53Z" stroke="#32CAA0" stroke-width="2" stroke-miterlimit="10"></path><path d="M106.721 19.1606C106.377 19.1606 106.067 19.1019 105.792 18.9847C105.516 18.8625 105.3 18.6915 105.142 18.4716C104.985 18.2517 104.906 17.9952 104.906 17.702H105.806C105.826 17.9219 105.912 18.1027 106.065 18.2444C106.222 18.3861 106.441 18.4569 106.721 18.4569C107.011 18.4569 107.238 18.3885 107.4 18.2517C107.562 18.11 107.643 17.9292 107.643 17.7093C107.643 17.5383 107.592 17.399 107.489 17.2915C107.39 17.184 107.265 17.101 107.112 17.0423C106.965 16.9837 106.758 16.9202 106.492 16.8517C106.158 16.7638 105.885 16.6758 105.674 16.5879C105.467 16.495 105.29 16.3533 105.142 16.1628C104.995 15.9722 104.921 15.7181 104.921 15.4005C104.921 15.1073 104.995 14.8508 105.142 14.6309C105.29 14.411 105.496 14.2424 105.762 14.1251C106.028 14.0079 106.335 13.9492 106.684 13.9492C107.181 13.9492 107.587 14.0738 107.902 14.323C108.221 14.5673 108.398 14.9045 108.433 15.3345H107.503C107.489 15.1488 107.4 14.99 107.238 14.8581C107.075 14.7262 106.861 14.6602 106.596 14.6602C106.355 14.6602 106.158 14.7213 106.006 14.8434C105.853 14.9656 105.777 15.1415 105.777 15.3712C105.777 15.5275 105.824 15.657 105.917 15.7596C106.015 15.8574 106.138 15.9355 106.286 15.9942C106.433 16.0528 106.635 16.1163 106.891 16.1848C107.23 16.2776 107.506 16.3704 107.717 16.4633C107.934 16.5561 108.116 16.7003 108.263 16.8957C108.416 17.0863 108.492 17.3428 108.492 17.6653C108.492 17.9243 108.421 18.1686 108.278 18.3983C108.14 18.628 107.936 18.8136 107.666 18.9553C107.4 19.0922 107.085 19.1606 106.721 19.1606Z" fill="#EDE9E5"></path><path d="M101.588 19.1606C101.111 19.1606 100.671 19.0506 100.267 18.8307C99.8688 18.606 99.5516 18.2957 99.3155 17.8999C99.0843 17.4992 98.9688 17.0496 98.9688 16.5512C98.9688 16.0528 99.0843 15.6057 99.3155 15.2099C99.5516 14.8141 99.8688 14.5063 100.267 14.2864C100.671 14.0616 101.111 13.9492 101.588 13.9492C102.07 13.9492 102.51 14.0616 102.909 14.2864C103.312 14.5063 103.629 14.8141 103.86 15.2099C104.091 15.6057 104.207 16.0528 104.207 16.5512C104.207 17.0496 104.091 17.4992 103.86 17.8999C103.629 18.2957 103.312 18.606 102.909 18.8307C102.51 19.0506 102.07 19.1606 101.588 19.1606ZM101.588 18.4349C101.927 18.4349 102.23 18.3592 102.495 18.2077C102.761 18.0514 102.968 17.8315 103.115 17.5481C103.268 17.2598 103.344 16.9275 103.344 16.5512C103.344 16.175 103.268 15.8451 103.115 15.5617C102.968 15.2783 102.761 15.0609 102.495 14.9094C102.23 14.7579 101.927 14.6822 101.588 14.6822C101.249 14.6822 100.946 14.7579 100.68 14.9094C100.415 15.0609 100.206 15.2783 100.053 15.5617C99.9057 15.8451 99.832 16.175 99.832 16.5512C99.832 16.9275 99.9057 17.2598 100.053 17.5481C100.206 17.8315 100.415 18.0514 100.68 18.2077C100.946 18.3592 101.249 18.4349 101.588 18.4349Z" fill="#EDE9E5"></path><path d="M97.2494 19.1097L96.0689 17.0721H95.427V19.1097H94.5859V14.0156H96.3566C96.7501 14.0156 97.0821 14.084 97.3526 14.2209C97.6281 14.3577 97.8322 14.5409 97.965 14.7706C98.1027 15.0002 98.1716 15.2568 98.1716 15.5402C98.1716 15.8725 98.0732 16.1754 97.8765 16.4491C97.6847 16.7178 97.3871 16.9011 96.9838 16.9988L98.2528 19.1097H97.2494ZM95.427 16.4051H96.3566C96.6714 16.4051 96.9075 16.3269 97.0649 16.1705C97.2272 16.0142 97.3084 15.8041 97.3084 15.5402C97.3084 15.2763 97.2297 15.0711 97.0723 14.9245C96.9149 14.773 96.6763 14.6973 96.3566 14.6973H95.427V16.4051Z" fill="#EDE9E5"></path><path d="M90.3255 14.0156V17.2626C90.3255 17.6487 90.4263 17.9394 90.6279 18.1349C90.8345 18.3303 91.1198 18.4281 91.4838 18.4281C91.8527 18.4281 92.138 18.3303 92.3396 18.1349C92.5462 17.9394 92.6495 17.6487 92.6495 17.2626V14.0156H93.4906V17.248C93.4906 17.6633 93.3996 18.0152 93.2176 18.3035C93.0356 18.5918 92.7921 18.8068 92.4872 18.9485C92.1822 19.0902 91.8453 19.161 91.4764 19.161C91.1075 19.161 90.7706 19.0902 90.4656 18.9485C90.1656 18.8068 89.927 18.5918 89.75 18.3035C89.5729 18.0152 89.4844 17.6633 89.4844 17.248V14.0156H90.3255Z" fill="#EDE9E5"></path><path d="M87.4953 15.4811C87.3625 15.227 87.1781 15.0364 86.942 14.9094C86.7059 14.7775 86.4329 14.7115 86.1231 14.7115C85.7837 14.7115 85.4812 14.7872 85.2156 14.9387C84.95 15.0902 84.7409 15.3052 84.5885 15.5837C84.4409 15.8622 84.3671 16.1848 84.3671 16.5512C84.3671 16.9177 84.4409 17.2427 84.5885 17.5261C84.7409 17.8046 84.95 18.0196 85.2156 18.1711C85.4812 18.3226 85.7837 18.3983 86.1231 18.3983C86.5805 18.3983 86.9518 18.2713 87.2371 18.0172C87.5224 17.7631 87.697 17.4186 87.761 16.9837H85.8353V16.3167H88.6611V16.969C88.607 17.3648 88.4643 17.7289 88.2331 18.0611C88.0069 18.3934 87.7093 18.6597 87.3404 18.8601C86.9764 19.0555 86.5707 19.1533 86.1231 19.1533C85.641 19.1533 85.2008 19.0433 84.8024 18.8234C84.404 18.5986 84.0868 18.2884 83.8507 17.8926C83.6195 17.4968 83.5039 17.0496 83.5039 16.5512C83.5039 16.0528 83.6195 15.6057 83.8507 15.2099C84.0868 14.8141 84.404 14.5063 84.8024 14.2864C85.2057 14.0616 85.646 13.9492 86.1231 13.9492C86.669 13.9492 87.1535 14.0836 87.5765 14.3523C88.0044 14.6162 88.3143 14.9925 88.5061 15.4811H87.4953Z" fill="#EDE9E5"></path><path d="M80.759 14.6895V16.1847H82.5297V16.8664H80.759V18.4276H82.7511V19.1092H79.918V14.0078H82.7511V14.6895H80.759Z" fill="#EDE9E5"></path><path d="M77.1548 19.1606C76.8105 19.1606 76.5006 19.1019 76.2252 18.9847C75.9497 18.8625 75.7333 18.6915 75.5759 18.4716C75.4185 18.2517 75.3398 17.9952 75.3398 17.702H76.2399C76.2596 17.9219 76.3457 18.1027 76.4982 18.2444C76.6556 18.3861 76.8744 18.4569 77.1548 18.4569C77.445 18.4569 77.6713 18.3885 77.8336 18.2517C77.9959 18.11 78.077 17.9292 78.077 17.7093C78.077 17.5383 78.0254 17.399 77.9221 17.2915C77.8237 17.184 77.6983 17.101 77.5458 17.0423C77.3983 16.9837 77.1917 16.9202 76.9261 16.8517C76.5916 16.7638 76.3186 16.6758 76.1071 16.5879C75.9006 16.495 75.7235 16.3533 75.5759 16.1628C75.4284 15.9722 75.3546 15.7181 75.3546 15.4005C75.3546 15.1073 75.4284 14.8508 75.5759 14.6309C75.7235 14.411 75.9301 14.2424 76.1957 14.1251C76.4613 14.0079 76.7687 13.9492 77.1179 13.9492C77.6147 13.9492 78.0205 14.0738 78.3353 14.323C78.655 14.5673 78.832 14.9045 78.8665 15.3345H77.9369C77.9221 15.1488 77.8336 14.99 77.6713 14.8581C77.5089 14.7262 77.295 14.6602 77.0294 14.6602C76.7884 14.6602 76.5916 14.7213 76.4391 14.8434C76.2867 14.9656 76.2104 15.1415 76.2104 15.3712C76.2104 15.5275 76.2572 15.657 76.3506 15.7596C76.449 15.8574 76.572 15.9355 76.7195 15.9942C76.8671 16.0528 77.0687 16.1163 77.3245 16.1848C77.6639 16.2776 77.9393 16.3704 78.1508 16.4633C78.3672 16.5561 78.5492 16.7003 78.6968 16.8957C78.8493 17.0863 78.9255 17.3428 78.9255 17.6653C78.9255 17.9243 78.8542 18.1686 78.7115 18.3983C78.5738 18.628 78.3697 18.8136 78.0992 18.9553C77.8336 19.0922 77.5188 19.1606 77.1548 19.1606Z" fill="#EDE9E5"></path><path d="M70.7837 19.1606C70.4394 19.1606 70.1295 19.1019 69.8541 18.9847C69.5787 18.8625 69.3622 18.6915 69.2048 18.4716C69.0474 18.2517 68.9688 17.9952 68.9688 17.702H69.8689C69.8885 17.9219 69.9746 18.1027 70.1271 18.2444C70.2845 18.3861 70.5034 18.4569 70.7837 18.4569C71.0739 18.4569 71.3002 18.3885 71.4625 18.2517C71.6248 18.11 71.7059 17.9292 71.7059 17.7093C71.7059 17.5383 71.6543 17.399 71.551 17.2915C71.4526 17.184 71.3272 17.101 71.1747 17.0423C71.0272 16.9837 70.8206 16.9202 70.555 16.8517C70.2205 16.7638 69.9476 16.6758 69.7361 16.5879C69.5295 16.495 69.3524 16.3533 69.2048 16.1628C69.0573 15.9722 68.9835 15.7181 68.9835 15.4005C68.9835 15.1073 69.0573 14.8508 69.2048 14.6309C69.3524 14.411 69.559 14.2424 69.8246 14.1251C70.0902 14.0079 70.3976 13.9492 70.7468 13.9492C71.2436 13.9492 71.6494 14.0738 71.9642 14.323C72.2839 14.5673 72.461 14.9045 72.4954 15.3345H71.5658C71.551 15.1488 71.4625 14.99 71.3002 14.8581C71.1379 14.7262 70.9239 14.6602 70.6583 14.6602C70.4173 14.6602 70.2205 14.7213 70.0681 14.8434C69.9156 14.9656 69.8393 15.1415 69.8393 15.3712C69.8393 15.5275 69.8861 15.657 69.9795 15.7596C70.0779 15.8574 70.2009 15.9355 70.3484 15.9942C70.496 16.0528 70.6976 16.1163 70.9534 16.1848C71.2928 16.2776 71.5682 16.3704 71.7797 16.4633C71.9961 16.5561 72.1781 16.7003 72.3257 16.8957C72.4782 17.0863 72.5544 17.3428 72.5544 17.6653C72.5544 17.9243 72.4831 18.1686 72.3404 18.3983C72.2027 18.628 71.9986 18.8136 71.7281 18.9553C71.4625 19.0922 71.1477 19.1606 70.7837 19.1606Z" fill="#EDE9E5"></path><path d="M65.6465 19.1606C65.1694 19.1606 64.7292 19.0506 64.3259 18.8307C63.9274 18.606 63.6102 18.2957 63.3741 17.8999C63.1429 17.4992 63.0273 17.0496 63.0273 16.5512C63.0273 16.0528 63.1429 15.6057 63.3741 15.2099C63.6102 14.8141 63.9274 14.5063 64.3259 14.2864C64.7292 14.0616 65.1694 13.9492 65.6465 13.9492C66.1285 13.9492 66.5687 14.0616 66.9671 14.2864C67.3705 14.5063 67.6877 14.8141 67.9189 15.2099C68.1501 15.6057 68.2656 16.0528 68.2656 16.5512C68.2656 17.0496 68.1501 17.4992 67.9189 17.8999C67.6877 18.2957 67.3705 18.606 66.9671 18.8307C66.5687 19.0506 66.1285 19.1606 65.6465 19.1606ZM65.6465 18.4349C65.9859 18.4349 66.2884 18.3592 66.554 18.2077C66.8196 18.0514 67.0262 17.8315 67.1737 17.5481C67.3262 17.2598 67.4024 16.9275 67.4024 16.5512C67.4024 16.175 67.3262 15.8451 67.1737 15.5617C67.0262 15.2783 66.8196 15.0609 66.554 14.9094C66.2884 14.7579 65.9859 14.6822 65.6465 14.6822C65.3071 14.6822 65.0046 14.7579 64.739 14.9094C64.4734 15.0609 64.2644 15.2783 64.1119 15.5617C63.9643 15.8451 63.8906 16.175 63.8906 16.5512C63.8906 16.9275 63.9643 17.2598 64.1119 17.5481C64.2644 17.8315 64.4734 18.0514 64.739 18.2077C65.0046 18.3592 65.3071 18.4349 65.6465 18.4349Z" fill="#EDE9E5"></path><path d="M59.7529 14.0156C60.2989 14.0156 60.776 14.1207 61.1842 14.3308C61.5974 14.536 61.9146 14.8341 62.136 15.225C62.3622 15.611 62.4753 16.063 62.4753 16.581C62.4753 17.099 62.3622 17.5485 62.136 17.9296C61.9146 18.3108 61.5974 18.604 61.1842 18.8092C60.776 19.0095 60.2989 19.1097 59.7529 19.1097H58.0781V14.0156H59.7529ZM59.7529 18.4281C60.353 18.4281 60.8129 18.2668 61.1326 17.9443C61.4523 17.6218 61.6121 17.1674 61.6121 16.581C61.6121 15.9897 61.4523 15.528 61.1326 15.1957C60.8129 14.8634 60.353 14.6973 59.7529 14.6973H58.9192V18.4281H59.7529Z" fill="#EDE9E5"></path><path d="M56.0266 18.0684H53.8797L53.5108 19.1092H52.6328L54.4699 14.0078H55.4438L57.2809 19.1092H56.3955L56.0266 18.0684ZM55.7906 17.3868L54.9568 15.0193L54.1158 17.3868H55.7906Z" fill="#EDE9E5"></path><path d="M49.3779 14.0156C49.9239 14.0156 50.401 14.1207 50.8092 14.3308C51.2224 14.536 51.5396 14.8341 51.761 15.225C51.9872 15.611 52.1004 16.063 52.1004 16.581C52.1004 17.099 51.9872 17.5485 51.761 17.9296C51.5396 18.3108 51.2224 18.604 50.8092 18.8092C50.401 19.0095 49.9239 19.1097 49.3779 19.1097H47.7031V14.0156H49.3779ZM49.3779 18.4281C49.978 18.4281 50.4379 18.2668 50.7576 17.9443C51.0773 17.6218 51.2371 17.1674 51.2371 16.581C51.2371 15.9897 51.0773 15.528 50.7576 15.1957C50.4379 14.8634 49.978 14.6973 49.3779 14.6973H48.5442V18.4281H49.3779Z" fill="#EDE9E5"></path><path d="M94.0598 37.9977C93.9123 37.9977 93.7795 37.9464 93.6614 37.8438C93.5434 37.7265 93.4844 37.5872 93.4844 37.426V23.1772C93.4844 23.0159 93.5434 22.884 93.6614 22.7814C93.7795 22.6641 93.9123 22.6055 94.0598 22.6055H100.124C101.556 22.6055 102.795 22.84 103.843 23.3091C104.891 23.7635 105.717 24.4379 106.322 25.3321C106.927 26.2263 107.252 27.3257 107.296 28.6304C107.325 29.2608 107.34 29.8178 107.34 30.3016C107.34 30.7853 107.325 31.335 107.296 31.9507C107.237 33.3287 106.92 34.4648 106.344 35.359C105.783 36.2532 104.987 36.9202 103.954 37.36C102.921 37.7851 101.681 37.9977 100.235 37.9977H94.0598ZM98.2431 34.2596H100.124C100.611 34.2596 101.025 34.1789 101.364 34.0177C101.703 33.8564 101.969 33.6072 102.161 33.2701C102.353 32.9182 102.456 32.4711 102.471 31.9287C102.485 31.5036 102.493 31.1225 102.493 30.7853C102.508 30.4482 102.508 30.111 102.493 29.7738C102.493 29.4367 102.485 29.0629 102.471 28.6524C102.441 27.8461 102.205 27.2598 101.762 26.8933C101.334 26.5268 100.752 26.3436 100.014 26.3436H98.2431V34.2596Z" fill="#32CAA0"></path><path d="M78.7552 37.9977C78.6076 37.9977 78.4748 37.9464 78.3568 37.8438C78.2387 37.7265 78.1797 37.5872 78.1797 37.426V23.1772C78.1797 23.0159 78.2387 22.884 78.3568 22.7814C78.4748 22.6641 78.6076 22.6055 78.7552 22.6055H85.2182C86.502 22.6055 87.616 22.796 88.5604 23.1772C89.5195 23.5583 90.2647 24.1374 90.7959 24.9143C91.3271 25.6912 91.5927 26.6661 91.5927 27.8388C91.5927 29.0116 91.3271 29.9791 90.7959 30.7413C90.2647 31.489 89.5195 32.0387 88.5604 32.3905C87.616 32.7423 86.502 32.9182 85.2182 32.9182H83.1155V37.426C83.1155 37.5872 83.0565 37.7265 82.9384 37.8438C82.8351 37.9464 82.7023 37.9977 82.54 37.9977H78.7552ZM83.027 29.378H85.1075C85.5354 29.378 85.897 29.2534 86.1921 29.0042C86.502 28.7404 86.6569 28.3372 86.6569 27.7948C86.6569 27.3844 86.5388 27.0106 86.3027 26.6734C86.0667 26.3362 85.6682 26.1677 85.1075 26.1677H83.027V29.378Z" fill="#32CAA0"></path><path d="M68.6309 38.2187C67.1701 38.2187 65.9159 37.9988 64.8682 37.559C63.8206 37.1046 63.0016 36.4303 62.4114 35.5361C61.8212 34.6418 61.5039 33.5351 61.4596 32.2157C61.4449 31.6001 61.4375 30.9404 61.4375 30.2367C61.4375 29.5184 61.4449 28.8441 61.4596 28.2138C61.5039 26.9384 61.8212 25.8683 62.4114 25.0034C63.0164 24.1385 63.8501 23.4862 64.9125 23.0464C65.9749 22.6066 67.2144 22.3867 68.6309 22.3867C69.7671 22.3867 70.7779 22.5187 71.6633 22.7825C72.5486 23.0464 73.3012 23.4055 73.9209 23.86C74.5554 24.3144 75.035 24.8275 75.3596 25.3992C75.699 25.9562 75.876 26.5353 75.8908 27.1363C75.8908 27.2682 75.8392 27.3855 75.7359 27.4881C75.6473 27.5761 75.5367 27.6201 75.4039 27.6201H71.3313C71.1837 27.6201 71.0657 27.5981 70.9771 27.5541C70.8886 27.4955 70.8074 27.4222 70.7336 27.3342C70.6599 27.1876 70.5418 27.019 70.3795 26.8285C70.232 26.6379 70.018 26.4766 69.7376 26.3447C69.4573 26.1981 69.0884 26.1248 68.6309 26.1248C67.9374 26.1248 67.3988 26.3007 67.0152 26.6526C66.6315 27.0044 66.425 27.5614 66.3954 28.3237C66.3512 29.5551 66.3512 30.8158 66.3954 32.1058C66.425 32.9414 66.6389 33.5497 67.0373 33.9309C67.4505 34.2974 68.0038 34.4806 68.6973 34.4806C69.1548 34.4806 69.5606 34.4073 69.9147 34.2607C70.2836 34.1141 70.5713 33.8869 70.7779 33.5791C70.9845 33.2565 71.0878 32.8461 71.0878 32.3477V32.1278H69.5163C69.354 32.1278 69.2138 32.0691 69.0958 31.9519C68.9925 31.8346 68.9408 31.7027 68.9408 31.5561V29.5111C68.9408 29.3499 68.9925 29.2179 69.0958 29.1153C69.2138 28.998 69.354 28.9394 69.5163 28.9394H75.3375C75.4998 28.9394 75.64 28.998 75.758 29.1153C75.876 29.2179 75.9351 29.3499 75.9351 29.5111V32.1938C75.9351 33.4838 75.6252 34.5759 75.0055 35.4701C74.3857 36.3643 73.5299 37.046 72.4379 37.5151C71.346 37.9842 70.077 38.2187 68.6309 38.2187Z" fill="#32CAA0"></path><path d="M49.0989 37.9977C48.9514 37.9977 48.8186 37.9464 48.7005 37.8438C48.5825 37.7265 48.5234 37.5872 48.5234 37.426V23.1772C48.5234 23.0159 48.5825 22.884 48.7005 22.7814C48.8186 22.6641 48.9514 22.6055 49.0989 22.6055H52.7731C52.9354 22.6055 53.0756 22.6641 53.1936 22.7814C53.3117 22.884 53.3707 23.0159 53.3707 23.1772V34.0837H59.7673C59.9297 34.0837 60.0698 34.1423 60.1879 34.2596C60.3059 34.3622 60.365 34.4941 60.365 34.6554V37.426C60.365 37.5872 60.3059 37.7265 60.1879 37.8438C60.0698 37.9464 59.9297 37.9977 59.7673 37.9977H49.0989Z" fill="#32CAA0"></path></svg>