<svg xmlns="http://www.w3.org/2000/svg" width="192" height="40" viewBox="0 0 192 40" fill="none"><path d="M4 15.0018L36 6.42706V4L4 12.5748V15.0018Z" fill="white"></path><path d="M36 16.0557H4V20.3033H36V16.0557Z" fill="white"></path><path d="M4 36L36 27.4253V21.3572L4 29.9319V36Z" fill="white"></path><path d="M65.0117 18.9312C63.7125 18.3926 61.9863 17.8695 59.8318 17.3633C59.7046 17.3322 59.5618 17.2997 59.4034 17.2686L59.214 17.2206C57.82 16.9039 56.7817 16.6105 56.1016 16.3419C55.4202 16.0732 54.9049 15.7474 54.557 15.3672C54.2079 14.9869 54.034 14.4963 54.034 13.894C54.034 12.944 54.4143 12.2781 55.1749 11.8978C55.9354 11.5175 57.0283 11.3281 58.4547 11.3281C60.1965 11.3281 61.4879 11.598 62.3276 12.1366C63.1674 12.6753 63.6022 13.4995 63.6346 14.6079H68.3876C68.3551 12.4222 67.5401 10.7102 65.9397 9.47463C64.3394 8.23902 61.8915 7.62122 58.5974 7.62122C55.524 7.62122 53.1631 8.16764 51.516 9.26048C49.8677 10.3533 49.0448 11.977 49.0448 14.1315C49.0448 15.5891 49.3693 16.7533 50.0195 17.6242C50.6685 18.4964 51.6121 19.209 52.8477 19.7632C54.0833 20.3174 55.7628 20.8638 57.8849 21.4024L58.7402 21.5919C60.1342 21.9411 61.1959 22.2422 61.924 22.4953C62.6521 22.7497 63.2232 23.1053 63.6346 23.5648C64.0461 24.0242 64.2524 24.6187 64.2524 25.3468C64.2524 26.4877 63.8319 27.3118 62.9935 27.818C62.1537 28.3255 60.8623 28.5786 59.1205 28.5786C57.1243 28.5786 55.6109 28.2385 54.5817 27.5571C53.5512 26.8757 53.0047 25.7751 52.9424 24.2539H48C48.0311 26.8524 48.9501 28.8563 50.7568 30.2659C52.5635 31.6767 55.2553 32.3802 58.8363 32.3802C61.1803 32.3802 63.1297 32.0544 64.6821 31.4054C66.2344 30.7565 67.3986 29.8778 68.1747 28.7681C68.9509 27.6597 69.339 26.376 69.339 24.9185C69.339 23.4609 68.9431 22.1552 68.1514 21.1883C67.3596 20.2226 66.3135 19.4698 65.0143 18.9312H65.0117Z" fill="white"></path><path d="M90.5806 9.06964C88.7739 8.10399 86.5882 7.61987 84.0222 7.61987C81.4563 7.61987 79.2459 8.13514 77.3925 9.16439C75.5391 10.1949 74.1205 11.6434 73.1392 13.5124C72.1567 15.3827 71.6661 17.5684 71.6661 20.0707C71.6661 22.5731 72.1567 24.6173 73.1392 26.4863C74.1205 28.3566 75.5546 29.8051 77.4405 30.8343C79.3251 31.8649 81.5666 32.3788 84.165 32.3788C87.302 32.3788 89.8992 31.7065 91.9589 30.3593C94.0187 29.0133 95.3647 27.0885 95.9981 24.5849H90.9128C90.5637 25.6946 89.8109 26.6044 88.6558 27.3183C87.4993 28.0308 86.034 28.3877 84.2597 28.3877C82.7074 28.3877 81.3758 28.0399 80.2674 27.3416C79.1577 26.6447 78.3101 25.6621 77.7248 24.3954C77.2796 23.4336 77.0044 22.3239 76.8967 21.0688H96.1408C96.172 20.8793 96.1953 20.6885 96.2122 20.499C96.2278 20.3096 96.2356 20.1356 96.2356 19.976V19.4062C96.2031 17.0297 95.7047 14.9557 94.7391 13.1801C93.7721 11.4059 92.386 10.0366 90.5806 9.06964ZM77.5586 15.5813C78.0337 14.3301 78.8098 13.3242 79.8871 12.5636C80.9643 11.803 82.3103 11.4228 83.9262 11.4228C85.5421 11.4228 86.8257 11.7394 87.8705 12.3728C88.9166 13.0075 89.6837 13.9407 90.1756 15.1763C90.4534 15.8759 90.6286 16.6702 90.7091 17.5528H77.0291C77.1485 16.8558 77.3237 16.1978 77.5573 15.58L77.5586 15.5813Z" fill="white"></path><path d="M106.906 8.80751C105.78 9.50449 104.902 10.5506 104.268 11.9446L103.413 8.00021H98.7561L99.4687 13.6552V31.9999H104.506V15.9902C105.71 14.0641 107.749 13.0374 111.386 13.0374H112.633V7.7627H111.35C109.512 7.7627 108.031 8.11183 106.906 8.80881V8.80751Z" fill="white"></path><path d="M131.689 9.06964C129.883 8.10399 127.697 7.61987 125.131 7.61987C122.565 7.61987 120.355 8.13514 118.501 9.16439C116.648 10.1949 115.229 11.6434 114.248 13.5124C113.265 15.3827 112.775 17.5684 112.775 20.0707C112.775 22.5731 113.265 24.6173 114.248 26.4863C115.229 28.3566 116.663 29.8051 118.549 30.8343C120.434 31.8649 122.675 32.3788 125.274 32.3788C128.411 32.3788 131.008 31.7065 133.068 30.3593C135.127 29.0133 136.473 27.0885 137.107 24.5849H132.022C131.672 25.6946 130.92 26.6044 129.765 27.3183C128.608 28.0308 127.143 28.3877 125.368 28.3877C123.816 28.3877 122.485 28.0399 121.376 27.3416C120.266 26.6447 119.419 25.6621 118.833 24.3954C118.388 23.4336 118.113 22.3239 118.005 21.0688H137.25C137.281 20.8793 137.304 20.6885 137.321 20.499C137.337 20.3096 137.344 20.1356 137.344 19.976V19.4062C137.312 17.0297 136.813 14.9557 135.848 13.1801C134.881 11.4059 133.495 10.0366 131.689 9.06964ZM118.667 15.5813C119.142 14.3301 119.919 13.3242 120.996 12.5636C122.073 11.803 123.419 11.4228 125.035 11.4228C126.651 11.4228 127.934 11.7394 128.979 12.3728C130.025 13.0075 130.792 13.9407 131.284 15.1763C131.562 15.8759 131.737 16.6702 131.818 17.5528H118.138C118.257 16.8558 118.432 16.1978 118.666 15.58L118.667 15.5813Z" fill="white"></path><path d="M187.675 31.9999L187.009 26.8199V16.3639C187.009 13.2593 186.169 11.0334 184.49 9.68618C182.81 8.34024 180.26 7.66663 176.838 7.66663C173.417 7.66663 170.969 8.29222 169.305 9.54341C167.641 10.7959 166.763 12.6402 166.668 15.0803H171.516C171.516 13.7188 171.975 12.7441 172.894 12.1574C173.813 11.572 175.128 11.2787 176.838 11.2787C178.454 11.2787 179.706 11.6201 180.593 12.3002C181.48 12.9816 181.924 14.2094 181.924 15.9836V18.1226H175.746C172.259 18.1226 169.662 18.7638 167.952 20.0474C166.241 21.331 165.386 23.1286 165.386 25.4415C165.386 26.8368 165.71 28.0555 166.36 29.1016C167.009 30.1477 167.976 30.955 169.26 31.5248C170.544 32.0959 172.104 32.3802 173.942 32.3802C176.382 32.3802 178.345 31.8973 179.835 30.9304C180.853 30.2697 181.673 29.3937 182.307 28.3112L183.019 31.9999H187.676H187.675ZM180.213 26.8913C179.072 28.2061 177.377 28.8641 175.128 28.8641C173.607 28.8641 172.442 28.5552 171.635 27.9374C170.828 27.3196 170.423 26.3293 170.423 24.9665C170.423 24.1112 170.612 23.4142 170.993 22.8755C171.373 22.3369 171.967 21.9488 172.775 21.7113C173.582 21.4738 174.62 21.3388 175.887 21.3077H181.922V21.736C181.922 23.8594 181.353 25.5778 180.212 26.8926L180.213 26.8913Z" fill="white"></path><path d="M152.98 7.61987C150.984 7.61987 149.266 8.05597 147.824 8.92687C146.774 9.56155 145.922 10.4311 145.268 11.5279L144.52 8.00016H139.864L140.576 13.1334V32.0011H145.613V15.8201C146.118 14.7065 146.772 13.8239 147.582 13.1788C149.355 11.7654 151.29 11.8511 151.555 11.8511C153.457 11.8511 154.874 12.4533 155.808 13.6565C156.743 14.8609 157.21 16.6819 157.21 19.122V32.0011H162.247V18.6469C162.247 15.0037 161.518 12.2547 160.062 10.4013C158.604 8.54788 156.243 7.62117 152.98 7.62117V7.61987Z" fill="white"></path></svg>