<svg xmlns="http://www.w3.org/2000/svg" width="102" height="53" viewBox="0 0 102 53" fill="none"><path d="M88.9371 38.2891C88.8759 38.2894 88.8144 38.2915 88.7528 38.2951C88.1553 38.3316 87.648 38.5661 87.2292 38.9908C86.8776 39.3463 86.6355 39.7729 86.4645 40.2399C86.2858 40.728 86.184 41.2335 86.1302 41.7504C86.0783 42.2424 86.0726 42.7324 86.1744 43.2206C86.2551 43.6011 86.3992 43.9527 86.6624 44.2467C87.039 44.6676 87.5309 44.8175 88.0765 44.806C88.2379 44.8021 88.3205 44.8521 88.3954 44.9886C88.5299 45.2326 88.6856 45.4632 88.8373 45.7053C89.3369 45.4805 89.8307 45.2595 90.3341 45.0327C90.1112 44.7637 89.8921 44.5023 89.6673 44.2333C89.9306 43.9777 90.1419 43.699 90.3052 43.3896C90.7145 42.6075 90.8682 41.7658 90.9047 40.8952C90.9239 40.4475 90.8912 40.0055 90.749 39.5788C90.5704 39.0446 90.2591 38.6276 89.7154 38.4181C89.464 38.3213 89.2026 38.2879 88.9371 38.2891ZM88.7317 39.8152C88.7427 39.815 88.7536 39.8151 88.7644 39.8155C88.9165 39.8217 89.0365 39.8956 89.087 40.0359C89.0906 40.0459 89.0938 40.0562 89.0967 40.0669C89.1428 40.236 89.1582 40.4167 89.1736 40.5128C89.1275 41.2834 89.0564 41.9656 88.8662 42.6306C88.8229 42.7873 88.7594 42.9356 88.644 43.0549C88.6363 43.0628 88.6284 43.0706 88.6202 43.0783C88.4379 43.2524 88.1911 43.2527 88.0368 43.1135C88.0368 43.1134 88.0366 43.1134 88.0366 43.1134C88.0316 43.1088 88.0268 43.104 88.0219 43.0992C88.0203 43.0976 88.0186 43.0961 88.0171 43.0945C88.0171 43.0944 88.0169 43.0944 88.0169 43.0943C88.0043 43.0812 87.9924 43.0671 87.9814 43.052C87.9814 43.0519 87.9812 43.0519 87.9812 43.0518C87.9646 43.029 87.95 43.004 87.9375 42.9767C87.9375 42.9767 87.9375 42.9767 87.9375 42.9766C87.9351 42.9713 87.933 42.9658 87.9307 42.9603C87.9291 42.9564 87.9274 42.9526 87.9259 42.9486C87.9249 42.9461 87.9242 42.9435 87.9233 42.9411C87.9172 42.9241 87.9118 42.9065 87.9074 42.8881C87.8651 42.7132 87.8574 42.5268 87.8651 42.3461C87.8668 42.3063 87.8686 42.2664 87.8707 42.2266C87.902 41.6294 87.9796 41.0394 88.1418 40.4628C88.1879 40.2995 88.2705 40.1438 88.3608 39.9997C88.4396 39.8709 88.5798 39.8171 88.7316 39.8152L88.7317 39.8152Z" fill="#056734"></path><path d="M74.3614 44.6826C73.8292 44.6826 73.3066 44.6826 72.7744 44.6826C72.8033 44.4577 72.8321 44.2406 72.8609 44.0234C72.9147 43.6083 72.9704 43.1932 73.0242 42.7781C73.053 42.559 73.0819 42.3419 73.1107 42.1228C73.1164 42.0748 73.1222 42.0267 73.1203 41.9787C73.1164 41.8826 73.0972 41.7903 72.9973 41.7481C72.8897 41.7039 72.784 41.7096 72.6899 41.7846C72.5554 41.8922 72.5285 42.0478 72.5074 42.2035C72.4248 42.8242 72.3441 43.445 72.2614 44.0657C72.2384 44.2367 72.2192 44.4078 72.1961 44.5788C72.1923 44.6134 72.1827 44.646 72.1769 44.6826C71.6505 44.6826 71.1298 44.6826 70.5938 44.6826C70.613 44.5307 70.6303 44.3828 70.6495 44.2348C70.7244 43.664 70.7993 43.0952 70.8743 42.5244C70.955 41.9191 71.0357 41.3137 71.1163 40.7103C71.1317 40.5892 71.1432 40.4682 71.1644 40.349C71.1682 40.3221 71.2066 40.2798 71.2297 40.2798C71.7158 40.276 72.2019 40.276 72.7053 40.276C72.6803 40.4797 72.6572 40.6738 72.6342 40.8679C72.6399 40.8717 72.6457 40.8756 72.6515 40.8794C72.6688 40.8583 72.688 40.8371 72.7053 40.8141C73.0319 40.4105 73.4411 40.1799 73.9714 40.1876C74.4364 40.1934 74.713 40.4048 74.8283 40.8544C74.8322 40.8679 74.8341 40.8833 74.836 40.889C74.9628 40.7545 75.08 40.6027 75.2241 40.4855C75.593 40.1838 76.0215 40.1203 76.471 40.2414C76.8073 40.3317 77.0032 40.6219 77.0013 41.0216C76.9994 41.258 76.9687 41.4925 76.9379 41.7269C76.8745 42.2439 76.8034 42.7589 76.7343 43.2758C76.6747 43.7217 76.619 44.1695 76.5556 44.6153C76.5517 44.6403 76.5114 44.6806 76.4864 44.6806C75.983 44.6845 75.4816 44.6826 74.9782 44.6826C74.9686 44.6826 74.9609 44.6768 74.9474 44.673C74.9878 44.3616 75.0281 44.0522 75.0704 43.7428C75.1377 43.2297 75.2068 42.7166 75.2721 42.2035C75.2818 42.1286 75.2894 42.0517 75.2914 41.9748C75.2933 41.873 75.2645 41.7788 75.1607 41.7404C75.0531 41.7 74.9455 41.7115 74.8571 41.7923C74.7572 41.8845 74.7188 42.0056 74.7015 42.1343C74.5958 42.9299 74.494 43.7255 74.3883 44.5192C74.3807 44.573 74.3711 44.623 74.3614 44.6826Z" fill="#94C120"></path><path d="M91.5864 38.4179C92.1762 38.4179 92.7584 38.4179 93.3444 38.4179C93.2848 38.8772 93.2233 39.3288 93.1638 39.7823C93.0965 40.2897 93.0293 40.797 92.962 41.3024C92.9063 41.7175 92.8506 42.1326 92.7968 42.5477C92.7872 42.6246 92.7814 42.7015 92.7795 42.7764C92.7756 43.1012 92.9774 43.1858 93.2483 43.13C93.4001 43.0974 93.4961 42.9917 93.5326 42.8475C93.5768 42.6727 93.6057 42.492 93.6306 42.3114C93.696 41.8425 93.7555 41.3736 93.8189 40.9046C93.8862 40.4011 93.9515 39.8977 94.0168 39.3922C94.0572 39.0848 94.0956 38.7773 94.1359 38.4698C94.1379 38.4506 94.1475 38.4333 94.1532 38.4141C94.7335 38.4141 95.3137 38.4141 95.9074 38.4141C95.8901 38.5563 95.8747 38.6985 95.8555 38.8388C95.7806 39.4114 95.7057 39.9861 95.6288 40.5587C95.5558 41.116 95.477 41.6733 95.4059 42.2307C95.356 42.6304 95.2906 43.0263 95.1485 43.4068C94.8295 44.2658 94.1993 44.7097 93.3002 44.7923C92.8909 44.8308 92.4836 44.825 92.0821 44.7155C91.4115 44.531 91.1233 44.0832 91.0369 43.4856C90.9735 43.0493 91.0253 42.6188 91.083 42.1865C91.1521 41.6695 91.2194 41.1545 91.2866 40.6375C91.3539 40.1302 91.4211 39.6248 91.4884 39.1174C91.5249 38.8868 91.5537 38.6562 91.5864 38.4179Z" fill="#056734"></path><path d="M54.513 38.4142C54.1801 38.4147 53.8473 38.4161 53.5139 38.4161H53.414C53.1373 40.5128 52.8626 42.5998 52.5859 44.6945H54.342C54.4457 43.9123 54.5495 43.1321 54.6533 42.3519H54.6744C54.8262 43.1302 54.9779 43.9085 55.1297 44.6906H56.9915C56.6994 43.7624 56.4093 42.8419 56.1192 41.9156C56.1538 41.8983 56.1826 41.8849 56.2134 41.8753C56.5688 41.7081 56.8801 41.4852 57.0972 41.1489C57.3392 40.7722 57.4199 40.3533 57.3969 39.9132C57.3719 39.4424 57.1778 39.058 56.7917 38.7793C56.4093 38.5045 55.9693 38.4219 55.5121 38.418C55.1787 38.4142 54.8459 38.4137 54.513 38.4142ZM55.1205 39.724C55.3961 39.727 55.5824 39.9172 55.5908 40.2149C55.5966 40.4513 55.5697 40.68 55.4506 40.8894C55.4387 40.9097 55.4251 40.929 55.4106 40.9477C55.4034 40.9571 55.3959 40.9664 55.388 40.9754C55.249 41.1386 55.0142 41.2318 54.8031 41.1988C54.8665 40.7088 54.9318 40.2206 54.9952 39.7344C55.009 39.7321 55.0226 39.7304 55.036 39.7289C55.0649 39.7254 55.0932 39.7237 55.1205 39.724Z" fill="#94C120"></path><path d="M83.3894 38.4142C83.3068 38.4123 83.2703 38.4334 83.2415 38.516C82.5691 40.4397 81.8927 42.3634 81.2184 44.287C81.1722 44.4216 81.1262 44.5561 81.0781 44.6983C81.6142 44.6983 82.1348 44.6944 82.6574 44.7002C82.7612 44.7021 82.8054 44.6733 82.8303 44.5696C82.8938 44.3044 82.9725 44.0411 83.0456 43.7816H84.085V44.6906H85.8007C85.6201 42.5959 85.4395 40.5108 85.257 38.4142C85.2089 38.4142 85.1724 38.4142 85.1378 38.4161C84.5557 38.4161 83.9716 38.418 83.3894 38.4142ZM84.0158 40.2533C84.0216 40.2533 84.0273 40.2533 84.0331 40.2552C84.0485 40.9989 84.0638 41.7427 84.0773 42.4941H83.3894C83.5989 41.7407 83.8083 40.997 84.0158 40.2533Z" fill="#056734"></path><path d="M68.0322 40.1604C67.7213 40.1664 67.401 40.2945 67.1627 40.5253C66.8707 40.8059 66.692 41.1518 66.5652 41.5285C66.3961 42.0358 66.3174 42.5604 66.3058 43.0928C66.2982 43.4291 66.327 43.7635 66.4499 44.0825C66.5998 44.4745 66.8534 44.7493 67.2895 44.8051C67.6546 44.8512 67.9793 44.7417 68.2598 44.5072C68.3597 44.4226 68.4539 44.3304 68.5596 44.2343C68.5384 44.39 68.5211 44.5341 68.5019 44.6859H70.0985C70.2926 43.2196 70.4847 41.7552 70.6787 40.287H69.0841C69.061 40.4369 69.0418 40.583 69.0149 40.7463C68.9745 40.6887 68.9476 40.6502 68.9188 40.6118C68.8055 40.4619 68.6729 40.3351 68.5 40.2544C68.3553 40.1876 68.195 40.1572 68.0322 40.1604ZM68.4781 41.5353C68.5131 41.5344 68.5473 41.5415 68.5791 41.556C68.6479 41.5863 68.7053 41.652 68.7344 41.7495C68.765 41.8505 68.7749 41.957 68.7834 42.0304C68.7857 42.0486 68.7878 42.0664 68.7901 42.08C68.7725 42.3677 68.7525 42.615 68.6901 42.8452C68.6713 42.9169 68.6488 42.9871 68.621 43.0563C68.5807 43.1504 68.5288 43.2465 68.4596 43.3234C68.3304 43.4662 68.1589 43.4644 68.0581 43.3446C68.0291 43.311 68.0058 43.2678 67.9908 43.2158C67.9582 43.1043 67.9486 42.9832 67.9505 42.866C67.9524 42.5489 67.9947 42.2357 68.1042 41.9359C68.1407 41.836 68.1926 41.7341 68.2598 41.6534C68.3246 41.5753 68.403 41.5372 68.4781 41.5353Z" fill="#94C120"></path><path d="M79.382 40.1602C79.3612 40.1602 79.3403 40.1603 79.3194 40.1607C78.62 40.1703 78.0455 40.4432 77.6536 41.0255C77.1272 41.8076 76.9946 42.684 77.1425 43.6026C77.2021 43.9658 77.3788 44.2771 77.6805 44.5038C77.9783 44.7268 78.3203 44.7998 78.6815 44.8094C79.6556 44.8344 80.4357 44.3347 80.77 43.47C80.8103 43.3681 80.8391 43.2624 80.8776 43.1452C80.4261 43.1452 79.9976 43.1432 79.5692 43.1471C79.548 43.1471 79.5211 43.1798 79.5077 43.2028C79.4519 43.2951 79.4097 43.3988 79.3424 43.4815C79.2272 43.6218 79.0696 43.6641 78.8928 43.6218C78.7276 43.5833 78.6546 43.4565 78.6469 43.3047C78.6354 43.1125 78.6488 42.9165 78.6585 42.7224C78.6585 42.7051 78.7123 42.6763 78.7411 42.6763C78.987 42.6724 79.2349 42.6743 79.4808 42.6743H80.9852C80.9928 42.6513 81.0005 42.6378 81.0044 42.6244C81.0793 42.2074 81.1196 41.7865 81.0447 41.3656C80.9621 40.9025 80.7392 40.5354 80.2935 40.3336C80.0035 40.2021 79.6949 40.1601 79.382 40.1602ZM79.3556 41.1798C79.5062 41.1805 79.6407 41.2834 79.6767 41.4425C79.7075 41.5828 79.6979 41.7327 79.7017 41.8787C79.7017 41.8788 79.7017 41.8788 79.7017 41.8788C79.7018 41.8794 79.7017 41.88 79.7017 41.8806C79.7017 41.896 79.6671 41.9268 79.6479 41.9268H78.7372C78.7593 41.8792 78.7799 41.8327 78.7997 41.7873C78.8592 41.651 78.9126 41.5242 78.9832 41.406C79.037 41.3214 79.133 41.2407 79.2272 41.2042C79.27 41.1874 79.3134 41.1796 79.3556 41.1798Z" fill="#94C120"></path><path d="M59.3298 40.1603C58.6804 40.1641 58.1347 40.4178 57.7505 40.9463C57.1702 41.7419 57.0261 42.6489 57.1856 43.6002C57.2836 44.1767 57.6294 44.5765 58.2116 44.736C58.5344 44.8244 58.8648 44.834 59.1915 44.7763C60.0849 44.6187 60.6363 44.0768 60.8918 43.2197C60.8976 43.1966 60.8976 43.1717 60.9014 43.1409C60.4653 43.1409 60.0388 43.1409 59.6142 43.1447C59.5892 43.1467 59.5527 43.1851 59.5411 43.2139C59.4873 43.3465 59.4201 43.4695 59.301 43.5541C59.0646 43.7213 58.763 43.6348 58.6977 43.3753C58.6401 43.1467 58.6727 42.9141 58.7034 42.6758H61.0359C61.1205 42.2012 61.1704 41.7342 61.0667 41.2633C60.9475 40.7291 60.6228 40.3736 60.0887 40.2448C59.8428 40.1852 59.5834 40.1583 59.3298 40.1603ZM59.3595 41.1841C59.4001 41.1828 59.4427 41.1879 59.4874 41.1999C59.666 41.248 59.7256 41.3921 59.7448 41.5555C59.7564 41.6573 59.7506 41.7591 59.7448 41.861C59.7443 41.8667 59.7417 41.8734 59.7378 41.8802C59.7377 41.8803 59.7377 41.8803 59.7377 41.8804C59.727 41.9015 59.7016 41.9244 59.6852 41.9244C59.3951 41.9283 59.105 41.9263 58.8053 41.9263C58.8123 41.9004 58.8194 41.8748 58.8267 41.8494C58.8341 41.824 58.8417 41.7989 58.8496 41.774C58.8973 41.6252 58.9571 41.4872 59.0493 41.3633C59.0908 41.3073 59.1375 41.2637 59.1893 41.2337C59.2412 41.2031 59.298 41.1861 59.3595 41.1841Z" fill="#94C120"></path><path d="M95.6719 44.6924C95.9485 42.5919 96.2233 40.5049 96.498 38.4141C97.0821 38.4141 97.6604 38.4141 98.2541 38.4141C98.2368 38.5563 98.2215 38.6946 98.2042 38.8311C98.1427 39.3 98.0812 39.7689 98.0178 40.2378C97.9563 40.7009 97.8948 41.1622 97.8334 41.6253C97.7661 42.1326 97.7008 42.64 97.6335 43.1454C97.5682 43.6393 97.5048 44.1332 97.4376 44.6271C97.4337 44.6501 97.3972 44.6886 97.3761 44.6886C96.8131 44.6924 96.2502 44.6924 95.6719 44.6924Z" fill="#056734"></path><path d="M63.9922 44.691C64.2938 42.408 64.5936 40.1307 64.8952 37.8477C65.4255 37.8477 65.9519 37.8477 66.4918 37.8477C66.4745 37.9879 66.4592 38.1244 66.4419 38.2589C66.3669 38.8297 66.292 39.3985 66.2171 39.9693C66.1421 40.5304 66.0672 41.0896 65.9923 41.6508C65.9116 42.2561 65.8347 42.8615 65.756 43.4668C65.706 43.857 65.6522 44.2452 65.6042 44.6353C65.5965 44.7025 65.5523 44.6968 65.5081 44.6968C65.0316 44.6968 64.5532 44.6968 64.0767 44.6968C64.0479 44.6987 64.0229 44.6948 63.9922 44.691Z" fill="#94C120"></path><path d="M63.7996 43.2497C63.7727 43.463 63.7478 43.6687 63.7209 43.8724C63.692 44.1011 63.6613 44.3278 63.6286 44.5565C63.6248 44.5873 63.5998 44.6315 63.5729 44.643C62.9677 44.8909 62.3702 44.912 61.813 44.5219C61.4883 44.2952 61.3173 43.9492 61.2558 43.5687C61.1156 42.6732 61.2462 41.8219 61.7573 41.057C62.0666 40.5919 62.4951 40.2806 63.0599 40.1903C63.4461 40.1288 63.8246 40.1538 64.1858 40.3364C64.1263 40.7841 64.0667 41.228 64.0091 41.6739C63.9245 41.647 63.8515 41.6162 63.7747 41.6028C63.5403 41.5605 63.3558 41.6528 63.2309 41.8449C63.0023 42.1966 62.9427 42.5867 63.0157 42.9922C63.0619 43.2497 63.2751 43.3746 63.5326 43.3208C63.619 43.3035 63.7036 43.2766 63.7996 43.2497Z" fill="#94C120"></path><path d="M41.6863 11.8268L42.2231 11.9473C41.9662 12.9819 41.3858 13.4992 40.482 13.4992C39.8878 13.4992 39.421 13.2594 39.0815 12.78C38.7443 12.3005 38.5757 11.711 38.5757 11.0113C38.5757 10.2887 38.7523 9.70831 39.1056 9.27016C39.4589 8.832 39.9326 8.61292 40.5267 8.61292C41.4076 8.61292 41.9731 9.11646 42.2231 10.1235L41.6691 10.2336C41.4673 9.48579 41.0853 9.11187 40.5233 9.11187C40.1081 9.11187 39.7858 9.28621 39.5564 9.6349C39.3292 9.9813 39.2157 10.4688 39.2157 11.0973C39.2157 11.6731 39.3327 12.1354 39.5667 12.4841C39.8007 12.8305 40.1104 13.0037 40.4957 13.0037C41.0945 13.0037 41.4913 12.6114 41.6863 11.8268ZM46.2729 12.8901V13.4062H43.2345V8.70927H46.2075V9.22542H43.8229V10.7188H45.7155V11.1971H43.8229V12.8901H46.2729ZM50.7563 13.4062H50.1403L49.2732 11.3726H47.9278V13.4062H47.3772V8.70927H49.2285C49.7309 8.70927 50.1025 8.84691 50.3434 9.12219C50.5865 9.39518 50.7081 9.69455 50.7081 10.0203C50.7081 10.2703 50.6404 10.5101 50.5051 10.7395C50.3697 10.9689 50.1461 11.1329 49.8341 11.2315L50.7563 13.4062ZM47.9278 10.8943H49.1562C49.4797 10.8943 49.7205 10.8094 49.8788 10.6397C50.0394 10.4676 50.1197 10.2577 50.1197 10.01C50.1197 9.76222 50.0348 9.56952 49.8651 9.43188C49.6976 9.29424 49.4854 9.22542 49.2285 9.22542H47.9278V10.8943ZM53.3402 13.4062H52.7552V9.22542H51.4098V8.70927H54.6891V9.22542H53.3402V13.4062ZM56.2166 13.4062H55.6282V8.70927H56.2166V13.4062ZM58.2603 13.4062H57.6719V8.70927H60.5486V9.22542H58.2603V10.7085H60.1563V11.1834H58.2603V13.4062ZM62.1208 13.4062H61.5324V8.70927H62.1208V13.4062ZM66.3909 11.8268L66.9277 11.9473C66.6707 12.9819 66.0903 13.4992 65.1865 13.4992C64.5924 13.4992 64.1255 13.2594 63.786 12.78C63.4488 12.3005 63.2802 11.711 63.2802 11.0113C63.2802 10.2887 63.4568 9.70831 63.8101 9.27016C64.1634 8.832 64.6371 8.61292 65.2312 8.61292C66.1121 8.61292 66.6776 9.11646 66.9277 10.1235L66.3737 10.2336C66.1718 9.48579 65.7898 9.11187 65.2278 9.11187C64.8126 9.11187 64.4903 9.28621 64.2609 9.6349C64.0338 9.9813 63.9202 10.4688 63.9202 11.0973C63.9202 11.6731 64.0372 12.1354 64.2712 12.4841C64.5052 12.8305 64.8149 13.0037 65.2003 13.0037C65.799 13.0037 66.1959 12.6114 66.3909 11.8268ZM71.1013 13.4062H70.4992L70.0243 12.0333H68.2866L67.8668 13.4062H67.3747L68.8991 8.70927H69.5701L71.1013 13.4062ZM69.9004 11.5928L69.1778 9.33553L68.4483 11.5928H69.9004ZM71.9992 13.4062V8.70927H73.5751C74.2381 8.70927 74.7543 8.93523 75.1236 9.38715C75.4929 9.83907 75.6776 10.3919 75.6776 11.0457C75.6776 11.7087 75.4975 12.2684 75.1374 12.7249C74.7772 13.1791 74.3207 13.4062 73.7678 13.4062H71.9992ZM72.5876 12.9073H73.5407C74.0454 12.9073 74.4285 12.733 74.69 12.3843C74.9515 12.0356 75.0823 11.5756 75.0823 11.0044C75.0823 10.541 74.9573 10.1247 74.7072 9.75534C74.4595 9.386 74.0706 9.20134 73.5407 9.20134H72.5876V12.9073ZM78.4645 13.4992C77.8612 13.4992 77.3909 13.2652 77.0537 12.7972C76.7165 12.3269 76.5479 11.7511 76.5479 11.0698C76.5479 10.3587 76.7245 9.7714 77.0778 9.30801C77.4311 8.84462 77.8991 8.61292 78.4817 8.61292C79.0621 8.61292 79.5278 8.84118 79.8788 9.29768C80.2298 9.7519 80.4053 10.3254 80.4053 11.0182C80.4053 11.6835 80.2344 12.2638 79.8926 12.7593C79.553 13.2526 79.077 13.4992 78.4645 13.4992ZM78.4783 13.0209C78.8889 13.0209 79.2101 12.8339 79.4418 12.46C79.6735 12.086 79.7893 11.6043 79.7893 11.0147C79.7893 10.4091 79.6689 9.93771 79.428 9.60049C79.1894 9.26327 78.8717 9.09466 78.4749 9.09466C78.0734 9.09466 77.7545 9.27704 77.5183 9.64178C77.282 10.0065 77.1638 10.4837 77.1638 11.0732C77.1638 11.649 77.2831 12.1182 77.5217 12.4806C77.7603 12.8408 78.0791 13.0209 78.4783 13.0209Z" fill="white"></path><path d="M39.1627 16.8204H43.174C44.5685 16.8204 45.5857 17.1485 46.2256 17.8048C46.8654 18.4446 47.1853 19.4372 47.1853 20.7825V21.8407C47.1853 23.629 46.5947 24.761 45.4135 25.2368V25.286C46.0697 25.4829 46.5291 25.8848 46.7916 26.4918C47.0705 27.0989 47.2099 27.911 47.2099 28.9282V31.9551C47.2099 32.4473 47.2263 32.8492 47.2592 33.1609C47.292 33.4563 47.374 33.7516 47.5052 34.0469H44.749C44.6506 33.768 44.585 33.5055 44.5521 33.2594C44.5193 33.0133 44.5029 32.5703 44.5029 31.9305V28.7805C44.5029 27.993 44.3717 27.4434 44.1092 27.1317C43.8631 26.82 43.4283 26.6641 42.8049 26.6641H41.8697V34.0469H39.1627V16.8204ZM42.8541 24.2032C43.3955 24.2032 43.7975 24.0637 44.06 23.7848C44.3389 23.5059 44.4783 23.0383 44.4783 22.3821V21.0532C44.4783 20.4298 44.3635 19.9786 44.1338 19.6997C43.9205 19.4208 43.576 19.2813 43.1002 19.2813H41.8697V24.2032H42.8541ZM51.6721 16.8204H55.3389L58.1443 34.0469H55.4373L54.9451 30.6262V30.6754H51.869L51.3768 34.0469H48.8666L51.6721 16.8204ZM54.6252 28.3375L53.4193 19.8227H53.3701L52.1889 28.3375H54.6252ZM63.7397 20.9055H60.9096V18.986C61.6807 18.986 62.2959 18.9204 62.7553 18.7891C63.2311 18.6579 63.6084 18.4446 63.8873 18.1493C64.1662 17.8376 64.4123 17.3946 64.6256 16.8204H66.4467V34.0469H63.7397V20.9055ZM74.2082 34.293C72.8793 34.293 71.8621 33.9156 71.1566 33.1609C70.4512 32.4063 70.0984 31.3399 70.0984 29.9617V20.9055C70.0984 19.5274 70.4512 18.461 71.1566 17.7063C71.8621 16.9517 72.8793 16.5743 74.2082 16.5743C75.5371 16.5743 76.5543 16.9517 77.2597 17.7063C77.9652 18.461 78.3179 19.5274 78.3179 20.9055V29.9617C78.3179 31.3399 77.9652 32.4063 77.2597 33.1609C76.5543 33.9156 75.5371 34.293 74.2082 34.293ZM74.2082 31.832C75.1433 31.832 75.6109 31.266 75.6109 30.134V20.7333C75.6109 19.6013 75.1433 19.0352 74.2082 19.0352C73.273 19.0352 72.8055 19.6013 72.8055 20.7333V30.134C72.8055 31.266 73.273 31.832 74.2082 31.832ZM84.5537 34.293C83.2248 34.293 82.2076 33.9156 81.5021 33.1609C80.7967 32.4063 80.4439 31.3399 80.4439 29.9617V20.9055C80.4439 19.5274 80.7967 18.461 81.5021 17.7063C82.2076 16.9517 83.2248 16.5743 84.5537 16.5743C85.8826 16.5743 86.8998 16.9517 87.6052 17.7063C88.3107 18.461 88.6634 19.5274 88.6634 20.9055V29.9617C88.6634 31.3399 88.3107 32.4063 87.6052 33.1609C86.8998 33.9156 85.8826 34.293 84.5537 34.293ZM84.5537 31.832C85.4888 31.832 85.9564 31.266 85.9564 30.134V20.7333C85.9564 19.6013 85.4888 19.0352 84.5537 19.0352C83.6185 19.0352 83.151 19.6013 83.151 20.7333V30.134C83.151 31.266 83.6185 31.832 84.5537 31.832ZM94.8992 34.293C93.5703 34.293 92.5531 33.9156 91.8476 33.1609C91.1422 32.4063 90.7894 31.3399 90.7894 29.9617V20.9055C90.7894 19.5274 91.1422 18.461 91.8476 17.7063C92.5531 16.9517 93.5703 16.5743 94.8992 16.5743C96.2281 16.5743 97.2453 16.9517 97.9507 17.7063C98.6562 18.461 99.0089 19.5274 99.0089 20.9055V29.9617C99.0089 31.3399 98.6562 32.4063 97.9507 33.1609C97.2453 33.9156 96.2281 34.293 94.8992 34.293ZM94.8992 31.832C95.8343 31.832 96.3019 31.266 96.3019 30.134V20.7333C96.3019 19.6013 95.8343 19.0352 94.8992 19.0352C93.964 19.0352 93.4964 19.6013 93.4964 20.7333V30.134C93.4964 31.266 93.964 31.832 94.8992 31.832Z" fill="white"></path><g clip-path="url(#clip0_11763_9909)"><path d="M38.7634 3.29446C37.5631 3.70364 36.5518 4.45576 35.5075 5.13578C33.748 6.27954 32.0372 7.4954 30.4901 8.92364C29.5314 10.0479 28.339 10.9286 27.316 11.9867C25.6793 13.2629 24.4693 14.9523 23.0391 16.4292C22.4409 17.0469 21.8038 17.6548 21.3439 18.403C19.5688 20.4977 17.9048 22.678 16.3168 24.9168C16.1492 25.1526 16.0226 25.4215 15.7537 25.5715C14.8496 25.5793 15.1263 24.6265 14.682 24.2602C13.7507 22.6157 12.8485 20.9536 11.7203 19.4318C11.4534 18.9194 10.9877 18.5472 10.7188 18.0328C10.3739 17.3801 9.73482 16.9573 9.37825 16.3162C9.04896 15.9265 8.70602 15.5465 8.4079 15.1315C8.19747 14.8042 7.81751 14.6405 7.60902 14.3093C7.22128 13.7676 6.66985 13.3642 6.32497 12.7875C6.19053 12.6121 6.03465 12.4562 5.87487 12.3043C5.37801 11.6048 4.39987 11.33 4.17969 10.387C4.22061 10.0031 4.47586 9.93296 4.79931 9.96413C5.36242 10.1687 5.9002 10.4298 6.43993 10.6851C6.69518 10.8468 6.98356 10.9364 7.2544 11.065C7.40443 11.1352 7.55057 11.2151 7.69671 11.2911C7.95001 11.4216 8.20331 11.5502 8.46051 11.6749C8.6086 11.747 8.75668 11.823 8.90477 11.8951C9.13079 12.0061 9.35097 12.1231 9.55556 12.2692C9.68806 12.3608 9.82445 12.4485 9.96669 12.5264C10.0739 12.581 10.181 12.6414 10.2862 12.7018C10.4616 12.8031 10.6253 12.9258 10.7987 13.0291C10.937 13.109 11.0773 13.185 11.2176 13.261C11.4242 13.3759 11.6112 13.524 11.8158 13.6448C12.0184 13.7715 12.2114 13.9157 12.4179 14.0404C12.7043 14.2157 12.9303 14.4651 13.1934 14.6678C13.5168 14.888 13.8189 15.1354 14.1072 15.3985C14.2144 15.4764 14.3216 15.5543 14.4307 15.6284C14.5398 15.6985 14.6411 15.7784 14.7366 15.8642C16.1337 17.1248 16.157 17.1482 17.4391 15.8115C19.8338 13.3155 22.4117 11.0339 25.2194 9.01522C26.0261 8.55733 26.6672 7.80911 27.6297 7.61621C30.6499 5.86647 33.8103 4.44017 37.1656 3.46203C37.6878 3.31005 38.2295 3.22042 38.7614 3.10156V3.29641L38.7634 3.29446Z" fill="#FEFEFE"></path><path d="M11.8701 46.1501C11.874 48.3422 12.6787 50.3316 13.4445 52.3307H13.0548C12.0864 51.6488 11.0985 50.9921 10.1554 50.279C9.35461 49.675 8.55768 49.0378 7.99456 48.1961C7.5659 47.5569 7.29506 47.7011 6.8508 48.1766C5.92137 49.1761 5.12055 50.2634 4.35089 51.5786C3.97484 50.2478 3.8248 49.0261 3.70984 47.7947C3.26559 43.0404 4.78736 38.7966 7.12944 34.7768C8.13486 33.0505 9.18509 31.3514 10.2139 29.6406C10.3405 29.6815 10.4263 29.7692 10.4945 29.8783C10.5763 30.0303 10.6309 30.1881 10.5861 30.3655C10.4867 30.5993 10.3366 30.8078 10.2275 31.0377C9.756 31.8346 9.27082 32.6218 8.77396 33.4031C8.28489 34.391 7.61266 35.2756 7.14892 36.2772C5.80836 38.8816 5.3784 41.6485 5.85902 44.5777C6.0149 45.5266 6.12791 46.4833 6.36173 47.405C6.68908 47.4498 6.81183 47.2199 6.97356 47.0835C7.42366 46.7074 7.79972 46.8185 8.14849 47.2179C8.44661 47.5589 8.69992 47.9369 9.03506 48.2467C9.82614 49.0924 10.6913 49.8503 11.6714 50.4641C11.9052 50.1445 11.9227 50.1387 11.7785 49.6457C11.1901 47.6368 10.9757 45.5909 11.0245 43.4983C11.0537 42.2882 11.2797 41.1153 11.4999 39.9364C11.8623 38.6894 12.1546 37.419 12.821 36.2811C13.4912 35.1743 13.9297 33.9487 14.561 32.8225C14.7617 32.464 14.8552 32.0217 15.2897 31.8327C15.5313 31.8658 15.6229 32.0061 15.5761 32.2419C14.0641 35.1295 12.5774 38.0289 11.9753 41.277C11.7746 42.3545 11.6032 43.4417 11.7279 44.5465C11.8935 45.0687 11.6616 45.626 11.8682 46.1462L11.8701 46.1501Z" fill="#E9BD30"></path><path d="M6.4311 10.8868C5.89137 10.6315 5.35359 10.3743 4.81386 10.1191C4.73981 9.76638 4.26243 9.5501 4.47677 9.10194C4.59952 9.05908 4.71643 8.99283 4.84308 8.97334C5.88877 8.81357 6.41616 8.21214 6.42526 7.16905C6.92602 6.41304 7.4034 5.63364 8.38348 5.41151C8.41466 5.41151 8.44973 5.40762 8.47896 5.41346C10.1858 5.77198 10.1566 5.76419 10.5424 4.03783C10.708 3.29936 10.7022 2.13027 11.2478 1.96075C11.9044 1.75811 12.524 2.74209 13.1885 3.17076C13.2878 3.23506 13.3443 3.37145 13.4184 3.47277C13.017 4.01835 12.5123 4.47624 12.0038 4.90491C11.4017 5.41346 11.2926 5.84603 11.9239 6.37212C11.8089 6.5845 11.5946 6.67803 11.4075 6.80078C9.76106 7.90363 8.19253 9.09025 7.08579 10.7815C6.8812 10.8984 6.67661 11.0329 6.4311 10.8848V10.8868Z" fill="#166738"></path><path d="M27.6233 7.64758C26.9199 8.24771 26.1347 8.72899 25.3319 9.18298C24.7785 8.98814 24.4609 8.55752 24.2057 8.06455C24.0089 7.57548 23.5374 7.31049 23.249 6.89741C22.8223 6.28364 22.9216 5.93096 23.59 5.65038C24.7259 5.59972 25.7937 5.21392 26.8634 4.89632C27.6194 4.67224 27.6896 4.89632 27.7013 5.58218C27.713 6.27584 27.2142 6.94807 27.6233 7.64758Z" fill="#197C3F"></path><path d="M2.73795 16.9193C2.14561 16.323 1.58835 15.6878 0.953139 15.1403C0.430945 14.6902 0.56539 14.5148 1.12071 14.3141C1.72864 14.092 2.2976 13.7569 2.91527 13.5757C3.86808 13.2951 4.26362 12.8294 3.70051 11.8805C4.59876 11.633 5.65289 12.3696 5.45025 13.2659C5.02548 15.1384 4.99625 17.0362 4.83647 18.9243C4.3552 19.3354 4.31233 18.8678 4.27921 18.5989C4.19737 17.9598 4.05513 17.3265 4.03565 16.6796C4.0298 16.4906 4.06877 16.2451 3.88171 16.1516C3.62062 16.0191 3.48812 16.2919 3.32834 16.4322C3.13544 16.5997 2.99515 16.8296 2.73795 16.9212V16.9193Z" fill="#166939"></path><path d="M11.8921 6.3775C10.7093 5.93519 10.686 5.90986 11.6368 5.02135C12.2116 4.48552 12.6091 3.7334 13.4314 3.48595C14.1679 3.94449 14.7778 3.81914 15.261 3.10989C15.6254 2.576 15.9975 2.04796 16.3639 1.51798C16.9445 0.67623 17.0556 0.680127 17.5544 1.57059C17.6167 1.68165 17.6576 1.80635 17.7083 1.92521C17.1413 2.62861 16.4944 3.26382 15.8124 3.84057C15.1499 4.39979 15.185 4.79728 15.8514 5.24933C15.8572 5.34675 15.828 5.43054 15.7657 5.50458C15.4831 5.69163 15.1499 5.72866 14.8323 5.81634C14.5128 5.867 14.1952 5.92156 13.8834 6.01119C13.4762 6.08133 13.0884 6.21773 12.7007 6.35607C12.4338 6.41452 12.1668 6.56261 11.8921 6.3775Z" fill="#176A3A"></path><path d="M19.2812 4.23652C20.234 3.52922 21.1926 2.82777 22.1376 2.11072C22.5507 1.79702 22.7923 1.76194 22.8586 2.38351C22.9073 2.82777 23.0378 3.26228 23.1333 3.70069C22.995 4.15468 22.652 4.45475 22.3247 4.76066C21.8454 5.20687 21.5336 5.63358 22.2409 6.15578C22.4182 6.28828 22.5566 6.50845 22.2682 6.70525C22.1825 6.73838 22.0928 6.75396 22.0012 6.75396C21.6388 6.7033 21.329 6.50261 20.9822 6.40518C20.649 6.27464 20.3255 6.11486 19.9729 6.03497C19.7858 5.97847 19.6221 5.88299 19.4896 5.7388C19.1662 5.27311 18.5485 4.84835 19.2812 4.23847V4.23652Z" fill="#16733D"></path><path d="M4.47753 26.0419C1.8802 26.0536 2.38876 25.8938 3.26363 24.2025C3.59877 23.5537 4.08004 22.9477 4.08978 22.1605C4.19111 21.6266 4.33919 21.5253 4.75422 21.7338C5.11469 21.915 5.33097 22.2423 5.53556 22.5775C5.94085 23.24 6.3247 23.9161 6.86638 24.4811C7.19372 24.7403 7.25997 25.1592 7.48015 25.4846C7.27946 25.925 6.93457 25.7106 6.7709 25.5411C5.97007 24.715 5.3602 25.0579 4.76981 25.7905C4.69187 25.8879 4.56911 25.9522 4.47558 26.0438L4.47753 26.0419Z" fill="#19773E"></path><path d="M2.73041 16.8855C2.7343 16.6789 2.81029 16.5036 2.97007 16.3769C3.313 16.1041 3.54098 15.4845 4.00666 15.6209C4.56588 15.7846 4.16644 16.4101 4.28335 16.8114C4.49573 17.5441 4.33011 18.3391 4.6711 19.0483C4.74904 19.1107 4.80554 19.1905 4.83672 19.2841C4.89907 19.5276 4.89128 19.7615 4.75099 19.9797C4.46846 20.1843 4.32622 19.9446 4.2249 19.7692C3.8274 19.0853 3.45914 19.3094 3.02463 19.742C2.59401 20.1687 2.2277 20.6617 1.73863 21.0319C0.86051 20.6227 0.791014 20.0713 1.53014 19.3776C1.88282 19.0483 2.24134 18.7229 2.62519 18.4306C3.26624 17.9435 3.36172 17.4447 2.73041 16.8835V16.8855Z" fill="#166F3B"></path><path d="M1.74608 21.041C2.02082 20.1233 2.87816 19.7004 3.45491 19.0399C3.69262 18.7691 3.93034 18.96 4.09206 19.1704C4.30445 19.4432 4.48371 19.7433 4.67661 20.0297C5.49108 21.5417 6.40102 23.009 6.818 24.7022C6.06588 24.1196 5.72684 23.2389 5.19491 22.4965C4.97862 22.1945 4.72922 21.3294 4.09206 22.1672C3.30877 21.7912 2.52548 21.4151 1.74219 21.039L1.74608 21.041Z" fill="#16723C"></path><path d="M4.68044 19.2709C4.68044 19.2066 4.68044 19.1403 4.68044 19.076C4.65706 17.2055 4.63757 15.3408 5.19484 13.517C5.44425 12.7025 4.74864 11.9894 3.7023 11.8744C3.40418 11.6348 3.36716 11.2645 3.23076 10.943C2.995 10.3858 2.32277 9.67068 2.58192 9.3258C2.94434 8.84258 3.82505 9.18161 4.47974 9.13485C4.50313 9.50311 5.09547 9.68237 4.81683 10.152C4.59081 10.1637 4.25567 9.99998 4.31023 10.4657C4.30048 10.8865 4.5343 11.1574 4.83047 11.4321C5.27473 11.8452 5.76769 12.2349 5.95085 12.8623C5.96449 12.9578 5.96254 13.0513 5.94696 13.1448C5.75405 13.8288 5.50855 14.4971 5.42866 15.2083C5.33123 15.5863 5.31564 15.9721 5.32928 16.3598C5.33513 16.6092 5.32149 16.8606 5.32928 17.11C5.33513 17.3126 5.32539 17.5153 5.32539 17.716C5.33318 17.9673 5.32539 18.2187 5.32539 18.4681C5.33123 18.7136 5.32344 18.9591 5.32539 19.2027C5.31759 19.645 5.49296 20.0464 5.61376 20.4595C5.64884 20.6095 5.65663 20.7576 5.62935 20.9096C5.51049 21.1064 5.41891 21.5233 5.17341 21.005C4.91426 20.4575 4.81099 19.8574 4.67654 19.2709H4.68044Z" fill="#166437"></path><path d="M7.22302 30.0068C6.95997 30.1977 6.65601 30.4549 6.35204 30.2504C6.09095 30.075 6.24488 29.7067 6.2819 29.43C6.39296 28.5669 6.52741 27.7095 6.65406 26.8483C7.36331 26.4274 8.08814 26.7587 8.65515 27.0431C9.35661 27.3958 10.0035 27.881 10.7478 28.1869C10.9855 28.2843 11.1804 28.4694 11.1492 28.7773C10.7244 29.0988 10.3309 28.8221 9.96843 28.6643C9.33712 28.3915 8.83636 28.5084 8.4038 29.017C8.06671 29.4145 7.6361 29.6989 7.22302 30.0068Z" fill="#188040"></path><path d="M15.7715 5.24017C14.5478 4.80956 14.5206 4.77838 15.4929 3.88403C16.2118 3.21959 16.7243 2.3155 17.6946 1.93359C17.9655 2.38564 18.2363 2.83769 18.5091 3.28974C18.4019 3.98535 17.2757 4.24645 17.7024 5.18756C17.7453 5.28109 17.4959 5.41554 17.3342 5.42918C16.8022 5.47399 16.2547 5.62013 15.7734 5.24017H15.7715Z" fill="#166E3B"></path><path d="M11.0956 28.8258C9.69851 27.9782 8.39302 26.9202 6.64133 26.8812C6.66082 26.4311 6.45623 26.2538 6.00028 26.2849C5.48393 26.32 4.96953 26.2694 4.47656 26.0862C4.56814 25.488 5.0689 25.2035 5.46834 24.8703C5.82297 24.5742 6.16785 24.7827 6.47181 25.071C6.72707 25.3107 6.93166 25.6946 7.3954 25.5172C7.66818 25.4062 7.81822 25.5874 7.95266 25.7666C8.69699 26.7643 9.65369 27.4774 10.7975 27.9645C11.1872 28.1302 11.6899 28.2295 11.721 28.8121C11.6236 28.9329 11.4931 28.9719 11.343 28.9641C11.2476 28.9427 11.1657 28.8979 11.0975 28.8258H11.0956Z" fill="#197B3F"></path><path d="M11.1021 28.7968C11.1664 28.7968 11.2326 28.7968 11.2969 28.7968C12.051 28.9585 12.7758 29.2449 13.5474 29.3346C13.904 29.4261 14.3054 29.4748 14.2158 30.0087C14.0599 30.1393 13.8689 30.2153 13.6799 30.1763C12.5888 29.9464 11.4898 29.8665 10.3792 29.9639C10.3227 29.8645 10.2642 29.7671 10.2077 29.6677C10.3675 29.165 10.1239 29.2469 9.78686 29.3423C8.93537 29.584 8.07414 29.7905 7.21875 30.0107C7.55194 29.3579 8.16571 28.9585 8.65089 28.4441C8.9607 28.1168 9.35039 28.1752 9.7362 28.3135C10.1902 28.4772 10.6481 28.635 11.1021 28.7968Z" fill="#188341"></path><path d="M22.1996 6.60831C22.2892 6.00233 21.1474 6.01792 21.4962 5.41389C21.8371 4.82544 22.4217 4.37729 22.903 3.87069C22.9673 3.80249 23.0549 3.75572 23.1309 3.69922C23.2849 4.33832 23.4368 4.97937 23.5908 5.61848C22.9614 6.00038 23.1407 6.39592 23.5187 6.86551C23.8032 7.22013 24.4033 7.36042 24.3273 7.97809C24.2611 8.04044 24.1831 8.07357 24.0915 8.07357C23.6921 7.98394 23.4368 7.6488 23.0861 7.47538C22.8094 7.16752 22.2249 7.17337 22.1996 6.60831Z" fill="#19763E"></path><path d="M15.7812 5.2395H17.5251C16.812 4.02754 18.0922 3.8814 18.5169 3.28906C18.7722 3.60472 19.0255 3.91842 19.2807 4.23408C18.8287 4.86734 19.4425 5.20832 19.6704 5.65453C19.5672 5.76364 19.4366 5.8104 19.2905 5.82989C19.1482 5.84353 19.0079 5.83573 18.8696 5.8104C18.6027 5.75195 18.3357 5.67986 18.059 5.68375C17.872 5.68375 17.683 5.6857 17.4959 5.68765C17.2524 5.68765 17.0088 5.69349 16.7633 5.69155C16.51 5.6857 16.2547 5.68765 16.0112 5.60192C15.9118 5.561 15.8358 5.49475 15.7832 5.40317C15.7832 5.35056 15.7832 5.296 15.7832 5.24339L15.7812 5.2395Z" fill="#16703C"></path><path d="M8.39017 5.45106C7.73743 6.03755 7.08468 6.6221 6.43194 7.20859C6.15331 6.4331 5.93118 5.41988 6.38518 4.91912C6.71447 4.55671 7.7043 5.21529 8.39017 5.45106Z" fill="#166235"></path><path d="M29.9597 22.7502C30.3474 23.5335 30.7176 24.3246 31.1268 25.0962C31.5321 25.86 31.1989 26.0646 30.4741 26.0587C29.7297 26.0529 28.9835 26.1016 28.2391 26.086C27.5961 26.0724 27.3701 26.351 27.4364 26.9726C27.5299 27.8397 27.5669 28.7145 27.6663 29.5816C27.7384 30.1993 27.6 30.4019 26.9454 30.1739C26.0315 29.8544 25.0904 29.6206 24.159 29.3497C23.9135 29.4179 23.9271 29.6576 23.8434 29.831C23.6115 30.7682 23.4069 31.7113 23.1341 32.6349C22.9022 33.4182 22.6275 33.5156 21.9553 33.0363C21.3863 32.631 20.7531 32.2822 20.3984 31.6334C21.2499 30.5968 22.1833 29.6362 23.2725 28.8509C23.8765 28.4164 24.4338 27.9449 24.8916 27.3584C24.9443 27.2882 25.0047 27.2259 25.0709 27.1694C25.4431 26.9882 25.8152 26.8031 25.938 26.3549C26.0763 26.0646 26.3024 25.8542 26.5596 25.6749C27.3993 25.143 27.8046 24.235 28.432 23.5199C28.7048 23.2081 28.9893 22.9041 29.3322 22.6645C29.5583 22.5067 29.794 22.4073 29.9597 22.7502Z" fill="#25944C"></path><path d="M23.7568 29.5858C23.7568 29.2467 23.8601 29.1103 24.1718 29.3695C24.8012 34.1121 27.0868 37.8376 31.389 40.5927C28.893 40.7817 26.7458 40.8558 24.6473 40.2147C24.0491 40.0316 23.8679 40.1777 23.7295 40.7584C23.3125 42.4867 23.1839 44.2442 23.1372 46.1518C21.6934 45.197 20.8048 43.9539 20.0936 42.5763C18.5582 39.601 18.1003 36.3899 18.0848 33.0891C17.9016 32.6293 17.9581 32.3078 18.5485 32.3039C18.6264 32.3877 18.6829 32.4831 18.718 32.5923C18.8875 33.5665 18.6537 34.5622 18.8778 35.5325C19.0278 37.1478 19.2987 38.7397 19.7916 40.2907C20.2885 41.8593 21.0406 43.2739 22.1844 44.4683C22.389 44.6826 22.5585 44.9125 22.5877 44.9866C22.4377 43.8584 22.7183 42.5627 22.9248 41.263C23.0164 40.8675 23.1216 40.4758 23.221 40.0842C23.41 39.3165 23.94 39.3184 24.5479 39.4938C25.072 39.6263 25.5903 39.788 26.132 39.8465C26.5626 39.8874 26.9776 40.0335 27.4141 40.0374C28.0883 40.0647 28.7644 40.0452 29.4464 40.0647C28.5267 39.3691 27.7902 38.4981 26.9776 37.7051C26.3795 36.9101 25.7715 36.121 25.3331 35.2208C24.5927 33.7594 24.0004 32.2454 23.6944 30.6282C23.7022 30.2794 23.597 29.9228 23.7587 29.5838L23.7568 29.5858Z" fill="#DDA34B"></path><path d="M29.9627 13.0586C30.8765 13.4522 31.7748 13.8828 32.7061 14.2257C33.5089 14.5219 33.468 14.8044 32.8679 15.313C32.0592 15.9989 31.1902 16.6341 30.5745 17.5265C29.5866 18.643 29.6275 20.1569 29.08 21.4507C28.6416 22.4854 28.2733 23.5434 27.6498 24.4884C27.5758 24.6151 27.4803 24.7242 27.3692 24.8197C27.2114 24.9307 27.0497 25.034 26.847 24.9288C26.7866 23.9643 27.5777 23.3427 27.8291 22.5049C27.8641 22.425 27.907 22.349 27.9499 22.273C28.1389 21.9729 28.2129 21.6436 28.2071 21.2929C28.2168 21.0084 28.2714 20.7376 28.435 20.4979C28.7312 20.0868 28.7702 19.5938 28.8754 19.1203C28.8929 17.7505 29.2144 16.4022 28.9904 15.009C28.7877 13.7386 29.0722 13.3431 29.9627 13.0586Z" fill="#1E8B46"></path><path d="M27.2572 24.7043C27.3215 24.64 27.3878 24.5737 27.4521 24.5094C28.0269 23.691 28.4809 22.8064 28.8706 21.8867C29.3811 20.6806 30.4449 19.9616 31.3374 19.0946C31.5069 18.9309 31.7387 18.8919 31.9589 19.0478C33.621 20.4176 33.9951 20.3572 31.6472 21.2535C31.2282 21.4133 30.8307 21.651 30.4021 21.7581C29.7844 21.914 29.7883 22.2803 29.9539 22.7519C28.9953 22.7597 28.6952 23.5995 28.2237 24.1782C27.7366 24.7744 27.3469 25.4486 26.6746 25.8733C26.3239 25.2109 27.1169 25.1212 27.2592 24.7062L27.2572 24.7043Z" fill="#21934A"></path><path d="M18.4724 32.2349C18.1665 32.4337 18.1295 32.761 18.0749 33.0786C17.4553 33.1566 17.4592 33.8502 16.9838 34.1503C16.5337 33.6826 16.2044 33.1176 15.9141 32.5233C16.4772 31.5919 17.2371 30.9138 18.2503 30.4579C19.5655 29.8675 21.0464 29.6434 22.194 28.6848C22.7299 28.2327 23.3436 27.8976 23.9301 27.5215C24.0685 27.4709 24.2107 27.4592 24.3549 27.4884C24.4484 27.5196 24.5225 27.5741 24.5829 27.6501C24.125 28.714 23.0241 29.018 22.1921 29.6259C21.4439 30.1734 20.5943 30.5787 19.813 31.0834C19.1563 31.2237 19.0375 31.9914 18.4705 32.2349H18.4724Z" fill="#1E9148"></path><path d="M29.9564 13.0405C28.912 13.6464 29.1946 14.607 29.2959 15.517C29.4381 16.7816 29.2647 18.0227 29.0172 19.2581C28.7347 19.0028 28.7717 18.658 28.7542 18.3287C28.8127 16.5809 28.7289 14.8526 28.0898 13.1924C27.9592 12.8554 27.8949 12.4345 28.1034 12.1578C28.9257 11.0666 29.709 9.90925 31.1489 9.52734C30.9794 10.4899 30.3695 11.2537 29.9701 12.113C29.82 12.4364 29.6486 12.7248 29.9545 13.0405H29.9564Z" fill="#1A8643"></path><path d="M31.9658 19.051C30.4577 19.9376 29.3841 21.2099 28.6222 22.7687C28.3124 23.4 28.0474 24.0645 27.4609 24.5146C27.9909 23.3533 28.5229 22.1978 28.9691 20.9956C29.2964 20.1168 29.3938 19.1894 29.7465 18.3262C29.916 17.9111 30.0719 17.5585 30.5707 17.5078C31.0364 18.0222 31.5021 18.5366 31.9658 19.053V19.051Z" fill="#1E9048"></path><path d="M31.1437 9.54146C30.1869 10.1572 29.4309 10.995 28.6165 11.7705C28.2053 12.1622 28.104 12.6357 28.295 13.0916C28.9984 14.7712 29.0471 16.5268 29.012 18.298C28.8191 19.0657 28.9867 19.8938 28.6223 20.6342C28.3378 20.8388 28.4547 21.1447 28.4275 21.4136C28.2501 21.7195 28.1995 22.0741 28.0378 22.3878C27.9306 22.4521 27.8351 22.4346 27.7552 22.3391C27.6617 22.1988 27.6247 22.0429 27.6188 21.8754C27.8449 20.4432 28.3515 19.0735 28.3729 17.5868C28.3982 15.9325 28.0514 14.3776 27.5117 12.8441C27.5039 12.7935 27.5 12.7409 27.4922 12.6922C27.4922 12.6415 27.4961 12.5908 27.498 12.5402C28.1605 10.8996 29.4504 9.89803 30.9761 9.13423C31.4223 9.11279 31.2508 9.33882 31.1398 9.54146H31.1437Z" fill="#1A7E40"></path><path d="M22.4061 28.8065C22.1041 29.3287 21.539 29.4884 21.0461 29.6541C19.1521 30.2932 17.305 30.9888 15.9235 32.53C15.8085 32.4462 15.6955 32.3624 15.5806 32.2787C15.5026 32.1637 15.4247 32.0487 15.3468 31.9357C15.1636 31.8032 15.0818 31.6454 15.2123 31.4311C15.8222 30.7549 16.625 30.4646 17.4881 30.2698C18.0181 30.1509 18.5618 30.0535 19.0391 29.7671C19.9393 29.4066 20.898 29.2117 21.7709 28.7714C21.9736 28.6701 22.2035 28.6175 22.4042 28.8045L22.4061 28.8065Z" fill="#1F8E47"></path><path d="M30.993 9.1343C29.8258 10.1787 28.4327 10.997 27.6923 12.4623C27.3474 12.3785 27.135 12.2012 27.2363 11.8076C28.2729 10.7964 29.2413 9.7091 30.4903 8.9375C30.6578 9.00375 30.8254 9.06805 30.9949 9.1343H30.993Z" fill="#1C703E"></path><path d="M22.1978 6.62304C22.5407 6.87245 22.8836 7.12185 23.2266 7.37126C23.1661 7.72004 22.8914 7.91489 22.6654 8.14091C20.4246 10.3875 18.1722 12.6205 15.9431 14.8788C15.3975 15.4302 14.8208 15.7381 14.0414 15.5413C13.716 15.286 13.3906 15.0308 13.0652 14.7755C13.0379 14.6742 13.0632 14.5436 13.147 14.53C14.3395 14.3488 14.9786 13.4018 15.7444 12.6439C17.5116 10.9 19.2555 9.13659 21.015 7.3849C21.3092 7.09263 21.5703 6.74775 22.0049 6.63863C22.0692 6.63084 22.1335 6.62499 22.1978 6.62109V6.62304Z" fill="#81AF5F"></path><path d="M14.0469 15.5098C15.1224 15.4261 15.7791 14.6993 16.4766 13.99C18.4446 11.987 20.4399 10.0112 22.4312 8.02961C22.6806 7.78215 22.9651 7.56977 23.234 7.33984C23.6393 7.4022 23.8419 7.76461 24.1537 7.96531C24.2472 8.47971 23.8205 8.70378 23.5438 8.98437C21.5037 11.0459 19.4461 13.0918 17.3963 15.1416C16.4377 16.1002 15.3868 16.2827 14.2437 15.6891C14.1794 15.6307 14.1151 15.5702 14.0488 15.5118L14.0469 15.5098Z" fill="#7DAE5A"></path><path d="M14.25 15.6933C14.3046 15.6621 14.3922 15.592 14.4098 15.6076C15.6061 16.5779 16.3836 15.9037 17.239 15.0074C19.5109 12.6264 21.851 10.3116 24.162 7.96951C24.2224 7.96561 24.2808 7.96366 24.3412 7.96561C24.6764 8.35725 25.0115 8.7489 25.3486 9.14055C22.1609 11.582 19.1251 14.1949 16.3933 17.1469C16.1147 17.4469 15.9354 17.3885 15.6899 17.1332C15.2203 16.6442 14.7313 16.1726 14.25 15.6933Z" fill="#7BAD57"></path><path d="M21.9928 6.63382C19.4539 9.19997 16.9053 11.7564 14.3839 14.3401C13.9864 14.7473 13.4194 14.3946 13.0551 14.7707C12.794 14.5778 12.5329 14.3849 12.2698 14.192C12.2406 14.0907 12.264 13.9562 12.3478 13.9445C13.5792 13.7536 14.23 12.7657 15.0211 11.9863C16.7046 10.332 18.3608 8.65245 20.0326 6.98844C20.3288 6.69422 20.5938 6.35518 21.0224 6.23438C21.3887 6.2636 21.6927 6.44481 21.9928 6.63382Z" fill="#84B163"></path><path d="M21.0344 6.22382C18.5579 8.72957 16.0716 11.2256 13.6126 13.7489C13.2152 14.1561 12.6423 13.7976 12.2799 14.1834C12.087 14.047 11.896 13.9106 11.7031 13.7742C14.8227 11.4925 17.1706 8.39249 20.0582 5.86725C20.4284 5.86335 20.7266 6.05041 21.0305 6.22577L21.0344 6.22382Z" fill="#87B369"></path><path d="M20.0688 5.89012C20.0494 6.29736 19.7162 6.49026 19.4726 6.73382C17.5397 8.67646 15.5932 10.6035 13.6681 12.552C13.105 13.121 12.573 13.7074 11.7137 13.7971C11.5189 13.6665 11.326 13.534 11.1311 13.4035C11.1097 13.3002 11.1448 13.1736 11.2305 13.1638C12.3314 13.0352 12.9276 12.1876 13.6155 11.4862C15.5074 9.55328 17.5144 7.73144 19.3011 5.69722C19.4258 5.69138 19.5506 5.68553 19.6772 5.67969C19.8078 5.74983 19.9383 5.81998 20.0708 5.89012H20.0688Z" fill="#8AB56B"></path><path d="M15.7743 5.42188C15.8366 5.44136 15.899 5.4589 15.9633 5.47838C16.0607 5.91094 15.7197 6.12138 15.482 6.36104C13.8004 8.06012 12.0936 9.73777 10.4179 11.4446C9.94828 11.922 9.44752 12.1695 8.78114 12.0311C8.65059 11.9668 8.52004 11.9025 8.39144 11.8382C8.35247 11.7018 8.3817 11.5674 8.49081 11.4895C10.4373 10.069 11.9299 8.17314 13.6738 6.54031C14.0284 6.20711 14.3791 5.87977 14.8039 5.64011C15.1274 5.56801 15.4508 5.49397 15.7743 5.42188Z" fill="#A0C288"></path><path d="M18.1115 5.49495C18.4018 5.4209 18.6434 5.54366 18.8831 5.682C18.9727 6.11651 18.6317 6.325 18.392 6.56661C16.4494 8.52484 14.4853 10.4616 12.5505 12.4277C12.0341 12.9518 11.4496 13.2012 10.7306 13.1876C10.5377 13.0609 10.3428 12.9323 10.1499 12.8057C10.148 12.7725 10.1344 12.716 10.1441 12.7121C12.1959 11.8801 13.3552 10.0076 14.9159 8.60473C16.0207 7.611 16.9774 6.46334 18.1095 5.49495H18.1115Z" fill="#91B873"></path><path d="M10.7363 13.1853C11.5235 13.0313 12.1022 12.5676 12.6517 12.0025C14.7151 9.88062 16.8059 7.78405 18.8849 5.67969C19.0213 5.68358 19.1557 5.68748 19.2921 5.68943C19.5259 6.0538 19.2025 6.21162 19.0135 6.40063C16.8974 8.52448 14.7463 10.6152 12.6751 12.7819C12.1977 13.2807 11.5976 13.0976 11.1221 13.3957C10.9935 13.3255 10.863 13.2535 10.7344 13.1833L10.7363 13.1853Z" fill="#8DB66F"></path><path d="M18.1157 5.47651C18.0962 5.88374 17.765 6.07664 17.5214 6.3202C15.8398 8.01149 14.131 9.6755 12.4748 11.3921C11.8123 12.078 11.1304 12.6547 10.1581 12.7853C10.086 12.7385 10.0119 12.6898 9.93983 12.643C9.87942 12.5027 9.93009 12.3819 10.0411 12.3079C12.4436 10.7199 14.1603 8.39729 16.2568 6.48193C16.6621 6.11171 17.0109 5.67915 17.5311 5.45312C17.726 5.46092 17.9208 5.46871 18.1176 5.47651H18.1157Z" fill="#95BA78"></path><path d="M8.7832 12.0059C9.6191 11.9455 10.1354 11.3784 10.6732 10.829C12.4308 9.03052 14.2 7.24376 15.9634 5.45115C16.2245 5.44725 16.4856 5.44335 16.7447 5.44141C16.8499 5.91684 16.4602 6.12922 16.205 6.38642C14.5098 8.10304 12.799 9.80407 11.0922 11.509C10.6557 11.9455 10.1822 12.3235 9.54701 12.4306C9.29175 12.2884 9.0365 12.1481 8.78125 12.0059H8.7832Z" fill="#9BBE82"></path><path d="M9.55469 12.4287C11.4603 11.1251 12.8769 9.29746 14.537 7.73282C15.3086 7.00409 16.0159 6.20716 16.7524 5.44141C17.0115 5.44141 17.2707 5.44335 17.5298 5.4453C15.0455 7.89065 12.8691 10.6633 9.93854 12.6372C9.80994 12.569 9.68329 12.5008 9.55469 12.4306V12.4287Z" fill="#97BC7D"></path><path d="M27.2335 11.7852C27.3855 12.0034 27.5375 12.2216 27.6895 12.4398L27.6388 12.4321C25.4682 14.3279 23.6483 16.5531 21.7661 18.7179C21.5946 18.9147 21.4095 19.0978 21.125 19.1134C20.6379 18.7802 21.2166 18.5503 21.2068 18.2639C22.9741 15.9978 24.9479 13.9187 26.9627 11.8767C27.0231 11.8163 27.1419 11.8144 27.2335 11.7852Z" fill="#5F9444"></path><path d="M14.8032 5.62087C12.7378 7.76226 10.7932 10.0283 8.39074 11.819C8.13354 11.6904 7.87439 11.5599 7.61719 11.4313C10.0099 9.92313 11.5317 7.44855 13.8251 5.83131C14.1232 5.63257 14.4583 5.60529 14.8032 5.62087Z" fill="#A6C58E"></path><path d="M11.8874 6.41554C12.131 6.34929 12.3726 6.28304 12.6162 6.21484C12.8987 6.55388 12.9104 6.56557 12.4953 6.98839C11.4354 8.06785 10.3384 9.11029 9.29593 10.2092C8.71918 10.8172 8.12099 11.3023 7.23248 11.2634C6.96944 11.1504 6.64209 11.1913 6.4375 10.9341C6.65963 10.9419 6.85837 10.8815 7.01815 10.7217C7.18182 10.71 7.33965 10.673 7.46046 10.56C8.79517 9.31878 10.1318 8.0776 11.3107 6.68248C11.5016 6.59285 11.6926 6.50322 11.8835 6.41359L11.8874 6.41554Z" fill="#B0CC99"></path><path d="M21.192 18.2969C21.4765 18.632 20.888 18.784 21.0264 19.0899C21.1628 19.3685 21.0303 19.6063 20.8666 19.8011C19.3098 21.6541 17.8387 23.5753 16.3383 25.4751C16.2779 25.5511 16.1825 25.5881 16.0909 25.6212C15.9369 25.6427 15.8005 25.6154 15.7031 25.4829C17.3028 22.9128 19.2007 20.5688 21.192 18.2988V18.2969Z" fill="#5F9245"></path><path d="M7.23438 11.2582C8.0352 11.0614 8.64898 10.6015 9.21209 10.0053C10.2253 8.93169 11.3028 7.91848 12.3258 6.85265C12.47 6.70262 12.9551 6.61299 12.618 6.2116C12.9902 5.97584 13.3896 5.83944 13.8358 5.85698C12.1426 7.57944 10.4377 9.29216 8.76783 11.0361C8.4288 11.3907 7.94557 11.1569 7.62797 11.4569C7.49742 11.3907 7.36687 11.3264 7.23632 11.2601L7.23438 11.2582Z" fill="#AAC892"></path><path d="M11.8541 19.2708C13.0973 20.7127 13.9118 22.4215 14.8373 24.0602C14.9367 24.2356 14.8314 24.3252 14.6931 24.3992C13.7968 24.1888 13.7637 23.2711 13.3038 22.7021C12.7271 21.8272 12.1873 20.927 11.5833 20.0678C11.5249 19.9333 11.5015 19.793 11.5093 19.6469C11.5521 19.4559 11.5833 19.2513 11.8541 19.2708Z" fill="#629348"></path><path d="M5.80811 12.8459C5.45349 12.2711 4.94883 11.8288 4.46561 11.3748C4.15969 11.0864 4.08175 10.8136 4.31752 10.4648C4.90596 11.0591 5.49246 11.6534 6.0809 12.2477C6.20561 12.5458 6.1452 12.7582 5.80811 12.8478V12.8459Z" fill="#1A5C36"></path><path d="M9.51685 16.1485C9.88122 16.8012 10.5846 17.1909 10.8808 17.9001C10.8223 18.0482 10.8808 18.247 10.6859 18.3347C10.4989 18.36 10.3547 18.2704 10.2183 18.1612C9.89291 17.867 9.68247 17.4851 9.43112 17.1344C9.3181 16.9356 9.22458 16.7311 9.21094 16.4992C9.24211 16.3199 9.24211 16.1134 9.5188 16.1485H9.51685Z" fill="#6D9856"></path><path d="M10.7208 18.2842C10.7754 18.1576 10.828 18.029 10.8826 17.9023C11.1398 18.4051 11.7185 18.6759 11.8607 19.2624C11.8061 19.391 11.7496 19.5196 11.6951 19.6482C11.0482 19.6443 10.943 19.0461 10.6273 18.6759C10.5903 18.5298 10.6059 18.3953 10.7189 18.2842H10.7208Z" fill="#66944C"></path><path d="M14.6004 24.3138C14.6764 24.2242 14.7524 24.1365 14.8304 24.0469C15.3526 24.3723 15.0018 25.2413 15.7072 25.4498C15.8592 25.4595 16.0092 25.4693 16.1612 25.479C16.0482 26.1123 15.5981 26.0304 15.2512 25.8044C14.7427 25.4732 14.3491 25.0114 14.6024 24.3119L14.6004 24.3138Z" fill="#649848"></path><path d="M9.50812 16.159C9.45551 16.2876 9.40095 16.4143 9.34834 16.5429C9.16908 16.6501 9.03464 16.5409 8.89434 16.4494C8.73652 16.3169 8.59623 16.1688 8.47737 15.9993C8.38969 15.8609 8.31564 15.7128 8.25914 15.5589C8.22212 15.4361 8.21627 15.3134 8.24355 15.1887C8.29421 15.0659 8.36436 14.9724 8.51634 14.9958C8.84563 15.3835 9.17493 15.7732 9.50617 16.161L9.50812 16.159Z" fill="#709B58"></path><path d="M5.80469 12.854C5.89627 12.6533 5.9859 12.4546 6.07748 12.2539C6.20023 12.3864 6.32299 12.5189 6.44574 12.6514C6.4321 13.1755 6.93286 13.3762 7.14135 13.7601C7.18032 13.8965 7.17253 14.029 7.11602 14.1576C7.06536 14.2355 6.99132 14.2803 6.89974 14.294C6.76529 14.2803 6.65423 14.2141 6.5568 14.1245C6.37949 13.953 6.27232 13.7289 6.12034 13.536C5.99369 13.384 5.86119 13.234 5.81833 13.0333C5.81638 12.9729 5.81053 12.9144 5.80469 12.854Z" fill="#94B57F"></path><path d="M7.01033 13.8136C6.82328 13.4181 6.0887 13.2914 6.43553 12.6367C6.76092 13.2524 7.52473 13.5038 7.74881 14.2052C7.69035 14.2695 7.61826 14.3007 7.53252 14.3027C7.23051 14.2773 7.16621 13.9987 7.01033 13.8156V13.8136Z" fill="#7C9B69"></path><path d="M7.59975 14.1914C7.65041 14.1914 7.70302 14.1914 7.75368 14.1914C7.90176 14.5577 8.44734 14.5421 8.51943 14.9825C8.47072 15.0429 8.42201 15.1033 8.3733 15.1656C7.99724 15.2865 7.7907 15.0078 7.54324 14.8188C7.49258 14.7389 7.4614 14.6532 7.44582 14.5616C7.43997 14.4155 7.48479 14.2888 7.5978 14.1914H7.59975Z" fill="#799C65"></path><path d="M7.02206 36.1857C7.33382 35.1004 8.16777 34.2956 8.58475 33.2668C9.40506 33.1324 9.24334 33.8358 9.30179 34.2119C9.72656 36.9241 10.1942 39.6306 10.6229 42.3429C10.9989 44.7278 11.1626 47.1439 11.716 49.5016C11.8056 49.8835 11.8134 50.2752 11.5016 50.5908C10.5313 50.0277 9.64473 49.3633 8.97055 48.4494C8.69971 48.0305 8.62372 47.5512 8.55163 47.0738C8.08594 43.9523 7.5501 40.8406 7.08052 37.7191C7.00258 37.2047 6.95971 36.7001 7.02206 36.1837V36.1857Z" fill="#EBC52E"></path><path d="M7.0294 36.1953C7.50678 37.4911 7.536 38.8725 7.77956 40.2131C8.22577 42.6623 8.57649 45.1311 8.95645 47.592C8.99932 47.8765 8.97204 48.1707 8.97593 48.461C8.80252 48.3188 8.56675 48.2097 8.46348 48.0285C7.93934 47.1029 7.39961 46.6801 6.60657 47.7908C6.40004 48.0811 6.1292 48.1434 6.05321 47.631C5.73365 45.4701 5.40826 43.3092 5.05753 41.1542C4.99713 40.7801 5.04389 40.4528 5.16664 40.1176C5.66935 38.7556 6.19739 37.4034 7.02745 36.1953H7.0294Z" fill="#EAC12E"></path><path d="M11.495 50.6153C11.419 48.5187 10.9299 46.4787 10.624 44.4152C10.1564 41.2704 9.67317 38.1275 9.13539 34.9943C9.03797 34.4214 9.25425 33.6947 8.57812 33.2933C9.09642 32.5139 9.61277 31.7345 10.1311 30.957C10.6377 30.9785 10.6007 31.4305 10.6727 31.7267C10.815 32.3093 10.9787 32.8938 10.9904 33.5018C11.0371 34.7663 11.3041 36.0017 11.5009 37.2448C11.6411 38.1294 11.8418 39.0082 11.6879 39.9123C11.6762 41.1729 11.3021 42.3849 11.269 43.6553C11.2027 46.2039 11.6762 48.6473 12.4478 51.1297C11.9743 51.1044 11.7405 50.8472 11.4911 50.6212L11.495 50.6153Z" fill="#E8C531"></path><path d="M10.7174 33.4809C10.6278 32.6138 10.5284 31.7467 10.1328 30.9498C10.1309 30.6789 10.2575 30.488 10.4953 30.3672C11.1207 30.6478 10.9298 31.2966 11.1305 31.7682C11.3058 32.5151 11.6975 32.682 12.3054 32.2689C12.8958 31.8695 13.4219 31.3726 14.0434 31.0219C14.6163 30.6984 15.1151 30.7101 15.2301 31.5324C15.2671 31.6668 15.3041 31.8032 15.3411 31.9377C14.5773 33.4244 13.8155 34.9091 13.0517 36.3958C12.7808 36.0879 12.8256 35.6729 12.7185 35.3144C12.4944 34.5603 12.2801 33.8881 11.2727 34.0303C10.8927 34.0849 10.8518 33.7147 10.7154 33.4789L10.7174 33.4809Z" fill="#E2C537"></path><path d="M10.7109 33.4609C10.9038 33.5642 10.974 33.8584 11.239 33.835C11.7125 33.7941 12.3145 33.6207 12.5386 34.1195C12.8387 34.7859 13.1914 35.4893 13.0491 36.2804C13.0433 36.3116 13.0491 36.3447 13.0491 36.3759C12.3808 37.4612 12.2015 38.7374 11.6871 39.8851C11.2974 37.7535 10.8571 35.6296 10.7129 33.4609H10.7109Z" fill="#E6C634"></path><path d="M10.9362 31.9293C10.79 31.409 10.642 30.8888 10.4958 30.3685C10.4588 30.238 10.4198 30.1075 10.3828 29.975C11.283 29.3027 12.2378 29.6632 13.1672 29.8658C13.5218 29.9438 13.8667 29.9711 14.2233 29.9769C14.2954 29.9029 14.3831 29.86 14.4844 29.8464C14.6948 29.8736 14.8877 29.9165 14.8176 30.2049C14.6227 30.3919 14.3675 30.4738 14.12 30.4874C13.2198 30.5361 12.5924 31.0232 11.9981 31.6409C11.7429 31.9059 11.4564 32.4632 10.9381 31.9293H10.9362Z" fill="#1B8844"></path><path d="M11.3101 6.65039C11.5186 6.95825 11.2731 7.11413 11.0958 7.29144C10.026 8.36116 8.96021 9.43477 7.8827 10.4967C7.64693 10.7286 7.40922 11.1066 7.01562 10.6876C8.01715 8.8853 9.62855 7.72985 11.3101 6.64844V6.65039Z" fill="#B0CC9E"></path><path d="M11.6903 28.8054C11.4877 28.3767 11.0493 28.2715 10.6732 28.1176C9.43984 27.6149 8.42078 26.8686 7.71543 25.721C7.65308 25.6216 7.51084 25.5709 7.40562 25.4969C7.21077 25.2377 7.01592 24.9766 6.82107 24.7175C6.02804 23.1957 5.12979 21.7227 4.67969 20.045C4.67969 19.7859 4.67969 19.5267 4.67969 19.2656C4.88038 19.8365 5.07913 20.4074 5.27982 20.9764C5.28762 20.9978 5.31684 21.0115 5.33633 21.029C5.37919 20.955 5.42206 20.8829 5.46493 20.8088C5.91892 20.8166 5.87606 21.2297 6.02219 21.4888C6.11962 21.8259 6.26381 22.1416 6.42163 22.4533C6.57362 22.808 6.80354 23.1178 7.00228 23.4451C7.18349 23.8387 7.46407 24.1641 7.73491 24.4973C8.29218 25.265 8.96051 25.9197 9.75355 26.4458C11.8189 28.0786 14.1357 28.9964 16.8012 28.9379C17.2201 28.9282 17.6391 28.9165 18.058 28.9671C18.2743 29.0139 18.4808 29.0743 18.5471 29.3257C18.5003 29.4289 18.4243 29.5049 18.321 29.5517C17.1948 29.7465 16.0608 29.6374 14.9307 29.6257C14.8313 29.616 14.7319 29.5946 14.6365 29.5653C13.9662 29.3783 13.3095 29.123 12.5944 29.1542C12.2788 29.0782 11.9475 29.0373 11.6923 28.8054H11.6903Z" fill="#176A39"></path><path d="M5.86426 21.5803C5.73176 21.3173 5.59926 21.0562 5.46676 20.7931C5.46287 20.6684 5.45702 20.5437 5.45312 20.421C5.77463 19.6455 6.48972 19.209 7.0314 18.6264C7.75818 17.8451 8.71294 17.2079 8.5785 15.9375C8.7636 16.0115 8.8922 16.144 8.96819 16.3291C9.84891 17.9269 9.83332 18.0438 8.54927 19.3298C7.95498 19.9261 7.36654 20.5301 6.75861 21.1107C6.51115 21.3465 6.29877 21.6816 5.8662 21.5803H5.86426Z" fill="#87B369"></path><path d="M8.57554 15.9614C8.96719 16.922 8.55995 17.5747 7.82732 18.1924C6.99532 18.8958 6.2393 19.6888 5.45212 20.4448C5.24363 20.0805 5.0254 19.72 5.10139 19.2718C5.6645 18.5723 6.32504 17.9625 6.97583 17.3526C7.55843 16.8089 8.02022 16.2458 7.94033 15.3943C8.1722 15.2443 8.26573 15.4372 8.38264 15.5736C8.53852 15.6574 8.5697 15.8035 8.57554 15.9614Z" fill="#8CB66E"></path><path d="M7.99701 15.3668C8.33605 16.0858 8.12951 16.6372 7.52158 17.1165C6.67789 17.7829 6.13231 18.7922 5.10741 19.2579C5.10546 18.9987 5.10351 18.7396 5.10156 18.4804C6.04658 17.4068 7.21372 16.5086 7.78658 15.1349C7.95609 15.1213 8.05547 15.1719 7.99701 15.3668Z" fill="#91B874"></path><path d="M7.79426 15.1717C7.48055 16.7519 6.34264 17.6599 5.09366 18.4783C5.08002 18.2191 5.06638 17.96 5.05469 17.7028C5.37814 17.354 5.70938 17.013 6.05231 16.6837C6.70116 16.0602 7.29155 15.4075 7.161 14.404C7.39482 14.2579 7.48445 14.4488 7.59551 14.5911C7.59551 14.6534 7.59746 14.7177 7.60136 14.7801C7.71827 14.8853 7.79816 15.008 7.79231 15.1736L7.79426 15.1717Z" fill="#95BA78"></path><path d="M7.21751 14.3898C7.56823 15.0893 7.34416 15.709 6.84145 16.1902C6.28223 16.728 5.89838 17.4879 5.06248 17.6984C5.06053 17.5055 5.05664 17.3126 5.05469 17.1216C5.29825 16.7456 5.53401 16.3637 5.88864 16.0753C6.48682 15.5882 6.87652 15.0017 6.82976 14.193C6.89601 14.193 6.96226 14.193 7.0285 14.193C7.21361 14.1404 7.27596 14.2086 7.21946 14.3898H7.21751Z" fill="#97BC7D"></path><path d="M6.23529 13.4492C6.36584 13.6441 6.49444 13.837 6.62499 14.0318C6.90947 15.1288 6.31323 16.0271 5.07984 16.3661C5.0662 15.9686 5.00774 15.5633 5.22597 15.1951C5.68192 14.6826 5.90989 14.0377 6.23334 13.4512L6.23529 13.4492Z" fill="#9EC086"></path><path d="M5.08976 16.3343C5.77173 15.6679 6.79079 15.2236 6.63491 14C6.69921 14.0643 6.76351 14.1305 6.82976 14.1948C7.15905 14.7891 7.08306 15.2977 6.54918 15.7458C6.03088 16.1804 5.64703 16.7669 5.05469 17.1234C5.06638 16.8604 5.07807 16.5973 5.08976 16.3343Z" fill="#9BBF81"></path><path d="M6.24174 13.4072C6.37229 14.2587 5.92804 14.777 5.23438 15.1511C5.24801 14.3834 5.4643 13.6722 5.82087 13C6.01767 13.076 6.16185 13.2085 6.24174 13.4072Z" fill="#A3C38C"></path><path d="M11.7002 28.8027C12.0237 28.869 12.3491 28.9352 12.6725 28.9995C12.9824 29.0307 13.2863 29.0794 13.5026 29.3425C13.5338 29.4321 13.5201 29.512 13.4539 29.5802C12.694 29.4457 11.9399 29.2976 11.3125 28.8008C11.443 28.8008 11.5716 28.8008 11.7022 28.8008L11.7002 28.8027Z" fill="#188040"></path><path d="M13.4375 29.5677C13.4375 29.5034 13.4375 29.4391 13.4375 29.3748C13.8272 29.1585 14.2169 29.2559 14.6066 29.3748C15.9043 29.5365 17.2039 29.5365 18.5016 29.3748C19.507 28.952 20.5514 28.6636 21.6211 28.4609C21.7303 28.4941 21.8082 28.5623 21.855 28.6675C20.8242 29.5774 19.4739 29.6476 18.2405 30.0061C16.974 30.3744 15.6841 30.2613 14.4117 29.9574H14.3143H14.2169C14.0688 29.6028 13.7707 29.5501 13.4375 29.5677Z" fill="#187C3F"></path><path d="M18.4648 32.2456C18.7961 31.7371 18.9013 31.02 19.6885 30.9382C19.9983 31.0668 20.3724 31.1116 20.4581 31.5305C21.1498 32.0936 21.8416 32.6548 22.6463 33.3114C23.036 31.9826 23.3887 30.7823 23.7413 29.582C23.7374 29.923 23.7647 30.2582 23.9401 30.5641C23.7335 31.4214 23.6809 32.3138 23.3497 33.1419C23.1061 33.6719 22.7184 33.9447 22.1163 33.8434C21.7305 33.7362 21.4207 33.5024 21.1304 33.2374C20.8615 32.9685 20.5692 32.7269 20.2867 32.4736C19.7352 31.9787 19.2403 31.9397 18.7571 32.5457C18.6655 32.5846 18.5817 32.571 18.5038 32.5126C18.4902 32.4229 18.4746 32.3352 18.4609 32.2456H18.4648Z" fill="#D5BA31"></path><path d="M20.4572 31.5275C20.1532 31.3912 19.894 31.1983 19.6875 30.9352C21.0047 30.1168 22.318 29.2907 23.6429 28.4821C24.0053 28.2619 24.3229 28.0105 24.5314 27.6384C24.6581 27.3695 24.8335 27.2487 25.116 27.4435C23.6722 28.9283 22.0744 30.2396 20.4591 31.5295L20.4572 31.5275Z" fill="#21934A"></path><path d="M25.1339 27.4525C24.9391 27.5168 24.7442 27.583 24.5494 27.6473C24.4851 27.6473 24.4188 27.6473 24.3545 27.6473C24.2513 27.4369 24.3545 27.2557 24.489 27.1329C25.2898 26.3984 25.8627 25.4144 26.8876 24.9214C27.0181 24.8571 27.1467 24.7909 27.2773 24.7266C27.3084 25.2293 26.6615 25.3929 26.6927 25.8937C26.4297 26.0204 26.2348 26.2152 26.1082 26.4783C25.9055 26.8894 25.4983 27.0453 25.1359 27.2576C25.1359 27.3219 25.1359 27.3862 25.1359 27.4525H25.1339Z" fill="#1E9048"></path><path d="M25.125 27.2403C25.3374 26.8389 25.7777 26.7259 26.0973 26.4609C26.0174 27.026 25.6706 27.2579 25.125 27.2403Z" fill="#21934A"></path><path d="M18.7092 32.5132C19.2606 31.5254 19.323 31.5254 20.2719 32.1937C20.6402 32.4528 21.0182 32.6867 21.2422 33.0939C21.8287 33.6706 21.9788 34.4072 22.1171 35.1885C22.4776 37.2169 22.5984 39.2862 23.181 41.2736C22.955 42.5635 22.8069 43.8632 22.766 45.3966C19.8004 42.6649 18.9041 39.294 18.7092 35.6289C18.5572 34.5903 18.5533 33.5518 18.7092 32.5132Z" fill="#EAC22E"></path><path d="M23.1719 33.1053C23.468 32.2753 23.3219 31.3088 23.9435 30.5781C24.1559 32.2363 24.945 33.7015 25.5101 35.2428C25.9368 36.5288 26.0556 37.8771 26.2895 39.2021C26.3479 39.5275 26.3265 39.8432 26.0927 40.1101C25.5549 40.0556 25.0307 39.9406 24.5339 39.7224C24.0838 39.4963 24.0779 39.0482 24.0136 38.6429C23.7213 36.7996 23.4505 34.9525 23.1719 33.1073V33.1053Z" fill="#E5C737"></path><path d="M23.1847 33.0625C23.9135 33.5652 23.5978 34.3855 23.7459 35.05C24.0849 36.5776 24.1395 38.1597 24.5467 39.6796C24.1005 39.6406 23.5783 39.3795 23.3815 40.0751C23.0678 39.964 22.9412 39.6913 22.8983 39.4068C22.6041 37.4856 22.1559 35.5897 22.0156 33.6451C22.53 33.7016 22.9509 33.5691 23.1847 33.0625Z" fill="#E8C531"></path><path d="M26.1006 40.0783C26.05 38.4396 25.4206 36.8691 25.518 35.2109C26.0363 35.9903 26.5566 36.7697 27.0749 37.5491C27.5367 38.4084 27.9205 39.2794 27.4646 40.2692C27.0106 40.2049 26.5566 40.1406 26.1006 40.0783Z" fill="#E2C93B"></path><path d="M22.004 33.647C22.6743 35.1298 22.6529 36.7549 22.9568 38.3137C23.0737 38.9099 23.14 39.51 23.3699 40.077C23.4323 40.4882 23.2393 40.8545 23.1653 41.2422C22.8516 41.3884 22.8068 41.2286 22.762 40.95C22.4561 39.0521 22.0781 37.1641 21.8364 35.2604C21.7371 34.481 21.5013 33.7737 21.2266 33.0625C21.4857 33.2573 21.7449 33.4522 22.004 33.647Z" fill="#EBC52F"></path><path d="M27.46 40.2904C27.3295 39.3844 27.2009 38.4764 27.0703 37.5703C27.9958 38.4335 28.9214 39.2986 29.9833 40.2904H27.46Z" fill="#E0CB40"></path><path d="M18.6998 32.4922C18.6998 33.5307 18.6998 34.5693 18.6998 35.6078C18.2984 34.5907 18.5966 33.5327 18.5167 32.4961C18.5771 32.4941 18.6394 32.4922 18.6998 32.4922Z" fill="#E7BC32"></path><path d="M26.8783 24.8944C26.0346 25.8024 25.1909 26.7123 24.3472 27.6203C24.2186 27.6203 24.0881 27.6203 23.9595 27.6203C23.8854 27.6963 23.8094 27.6982 23.7315 27.6261C23.6769 27.1273 24.0881 26.9091 24.355 26.6149C25.0818 25.8121 25.9683 25.1574 26.5373 24.2104C27.0673 23.661 27.155 22.7958 27.8525 22.3633C27.9168 22.3633 27.9831 22.3633 28.0474 22.3633C27.8506 23.2966 27.1803 24.0098 26.8783 24.8944Z" fill="#1A8241"></path><path d="M28.6328 20.6409C28.7634 19.8615 28.7263 19.0568 29.0225 18.3047C29.0225 18.6301 29.0225 18.9535 29.0225 19.2789C29.0342 19.7738 28.9602 20.2434 28.6328 20.6409Z" fill="#1A8241"></path><path d="M28.0478 22.3727C28.0362 21.9908 28.1277 21.6517 28.4375 21.3984C28.4492 21.7803 28.3577 22.1194 28.0478 22.3727Z" fill="#1A8241"></path><path d="M23.7766 27.6377C23.8428 27.6377 23.9071 27.6377 23.9734 27.6377C23.6012 28.2223 22.8783 28.3411 22.4146 28.8049C21.3117 29.1946 20.207 29.5843 19.1041 29.974C18.0948 30.3032 17.0543 30.4474 15.9963 30.4611C15.5851 30.4669 15.1526 30.5039 14.8194 30.1688C14.7356 30.0129 14.5895 29.9779 14.4297 29.974C14.6265 29.7187 14.8778 29.8044 15.1389 29.8395C17.4031 30.1552 19.5542 29.7421 21.6196 28.8049C21.7014 28.7678 21.7599 28.6763 21.83 28.612C22.3425 28.0157 22.9173 27.5403 23.7766 27.6377Z" fill="#198442"></path><path d="M18.087 29.1852C15.3727 29.3918 12.8417 28.8423 10.5307 27.3654C10.1469 27.1199 9.77474 26.8724 9.5 26.5041C9.92672 25.6078 10.749 25.0623 11.4134 24.3822C12.9644 22.7962 12.6585 23.1664 11.957 21.3523C11.7973 20.9393 11.2946 20.5788 11.6901 20.0449C12.5085 20.7269 12.865 21.7284 13.4418 22.5779C13.7652 23.4976 14.303 24.3121 14.7473 25.1714C15.3221 26.284 15.8306 26.2879 16.573 25.2552C19.5406 21.1185 22.816 17.2391 26.3525 13.5818C26.7207 13.1999 27.0617 12.7498 27.6443 12.6562C28.9459 15.353 28.9225 18.1218 28.0886 20.9334C27.9892 21.2705 27.921 21.6173 27.8392 21.9583C27.5644 22.7923 27.0831 23.5132 26.6058 24.2361C25.2886 26.0677 23.6811 27.5466 21.5572 28.4C20.4388 28.8267 19.3204 29.2515 18.0909 29.1852H18.087Z" fill="#75AA52"></path><path d="M27.64 12.6597C25.8474 14.2029 24.3256 16.0033 22.7532 17.7588C20.5787 20.1886 18.6283 22.7898 16.7071 25.4183C15.8614 26.5757 15.2496 26.5036 14.591 25.2274C14.1506 24.3759 13.5388 23.5848 13.4375 22.5813C13.9207 23.1016 14.0552 23.8557 14.6046 24.335C14.6787 24.7929 14.8755 25.2098 15.1794 25.5372C15.4756 25.8587 15.8517 25.9094 16.1634 25.5002C17.3734 23.5653 18.9069 21.8779 20.3196 20.097C20.5807 19.7677 20.869 19.4696 21.0346 19.078C22.3947 17.5893 23.7645 16.1124 25.1109 14.612C25.8591 13.7781 26.5274 12.8662 27.6322 12.4531C27.6342 12.5213 27.6381 12.5895 27.642 12.6577L27.64 12.6597Z" fill="#6DA54B"></path><path d="M26.5156 24.1393C26.9579 23.4126 27.4002 22.6838 27.8425 21.957C27.8464 22.0973 27.8523 22.2396 27.8562 22.3818C27.5016 23.0521 27.2405 23.7769 26.689 24.3283C26.6033 24.2913 26.5468 24.229 26.5156 24.1413V24.1393Z" fill="#1D793F"></path><path d="M14.815 30.1558C16.2452 30.1499 17.6793 30.2298 19.0997 29.9609C18.7724 30.2552 18.3554 30.3078 17.9462 30.376C16.9544 30.5455 16.0796 30.9897 15.2398 31.5158C14.8832 30.8884 14.4877 30.8728 13.9382 31.3385C13.3244 31.8607 12.5976 32.2524 11.9916 32.7804C11.3214 33.363 11.0876 33.1565 11.0213 32.3849C11.0077 32.2251 10.9706 32.0692 10.9453 31.9094C11.4168 32.1744 11.6097 31.7399 11.789 31.5002C12.5548 30.4734 13.6128 30.1655 14.815 30.1519V30.1558Z" fill="#1D8B45"></path><path d="M11.6894 20.0514C11.8511 20.9127 12.3713 21.6258 12.687 22.4228C12.839 22.8066 12.9656 23.1593 12.6227 23.4886C11.5764 24.4901 10.645 25.6105 9.49928 26.5087C8.67702 26.0294 8.03986 25.3689 7.55469 24.5544C8.17431 23.473 9.17193 22.7345 10.0351 21.885C10.7853 21.1465 11.3464 20.4645 10.6469 19.3987C10.5066 19.1863 10.4911 18.9038 10.7151 18.6875C11.2062 18.8492 11.2393 19.4611 11.6855 19.6676C11.6855 19.7962 11.6874 19.9228 11.6894 20.0514Z" fill="#79AC57"></path><path d="M10.7173 18.6998C10.7485 18.8888 10.7173 19.1226 10.8186 19.259C11.6916 20.43 11.1733 21.2465 10.2166 22.0434C9.27739 22.8247 8.54866 23.836 7.55688 24.5667C7.20615 24.3114 6.98207 23.9665 6.83594 23.5651C7.11262 22.8325 7.76147 22.4155 8.27587 21.8914C9.3261 20.8236 10.5751 19.8845 10.3276 18.1172C10.4562 18.1834 10.5848 18.2477 10.7134 18.314C10.7134 18.4426 10.7173 18.5692 10.7173 18.6978V18.6998Z" fill="#7DAE5B"></path><path d="M5.85938 21.593C6.9213 20.5603 7.97933 19.5237 9.04515 18.4968C9.39783 18.1578 9.42316 17.7642 9.25754 17.3453C9.12699 17.0179 8.92045 16.7178 8.96137 16.3398C9.08997 16.4061 9.21857 16.4723 9.34717 16.5405C9.41341 16.7334 9.47772 16.9283 9.54396 17.1212C10.3487 18.6449 10.2688 19.169 9.03151 20.4141C8.44112 21.0084 7.86047 21.6163 7.2467 22.1834C6.9856 22.425 6.75178 22.8361 6.2744 22.5672C6.09319 22.2593 5.86717 21.9729 5.86132 21.591L5.85938 21.593Z" fill="#83B161"></path><path d="M6.2832 22.5671C7.66273 21.4097 9.23321 20.4491 9.84308 18.5727C10.0438 17.9531 9.40662 17.6433 9.55471 17.1211C9.9561 17.3315 10.0672 17.7738 10.3341 18.0934C10.8446 19.4223 10.225 20.3536 9.27802 21.2032C8.44212 21.9553 7.65104 22.7581 6.84047 23.5394C6.63003 23.2296 6.36503 22.951 6.28125 22.5671H6.2832Z" fill="#80AF5E"></path><path d="M7.79251 15.1685C7.63664 15.0828 7.60156 14.9386 7.60156 14.7749C7.93865 14.7496 8.10817 15.0555 8.37511 15.1685C8.37706 15.2971 8.37901 15.4257 8.38096 15.5543C8.25041 15.49 8.11986 15.4257 7.98931 15.3614C7.92501 15.2971 7.85876 15.2328 7.79446 15.1685H7.79251Z" fill="#81A86A"></path><path d="M7.21634 14.3853C7.15204 14.3191 7.08969 14.2548 7.02539 14.1885C7.02539 14.0599 7.02539 13.9294 7.02344 13.8008C7.21829 13.9313 7.41313 14.0599 7.60798 14.1905C7.60798 14.321 7.60409 14.4516 7.60409 14.5821C7.47549 14.5159 7.34689 14.4516 7.21829 14.3853H7.21634Z" fill="#81A86A"></path><path d="M18.0859 29.1864C19.2609 28.863 20.4339 28.5415 21.6088 28.218C21.6926 28.1791 21.79 28.1615 21.8212 28.2648C21.8738 28.4382 21.7393 28.5278 21.6185 28.6136C20.5956 28.9331 19.6194 29.4456 18.5029 29.393C18.4133 29.2235 18.2516 29.202 18.0859 29.1864Z" fill="#176E3B"></path><path d="M18.5044 29.3906C17.2067 29.7121 15.9071 29.7121 14.6094 29.3906C15.9071 29.3906 17.2067 29.3906 18.5044 29.3906Z" fill="#176E3B"></path><path d="M14.6204 29.393C14.2307 29.393 13.841 29.393 13.4513 29.393C13.1921 29.2644 12.931 29.1338 12.6719 29.0052C13.3811 28.8279 13.9949 29.1397 14.6204 29.391V29.393Z" fill="#176E3B"></path><path d="M21.6191 28.6065C21.6406 28.4741 21.8354 28.3377 21.6094 28.211C23.5423 27.2134 25.2394 25.9293 26.5098 24.1367C26.5683 24.1991 26.6248 24.2614 26.6832 24.3238C26.2098 25.3565 25.2394 25.9508 24.5263 26.7711C24.2749 27.0614 24.0158 27.3459 23.7605 27.6323C23.1117 27.9577 22.4628 28.2812 21.814 28.6065C21.7497 28.6065 21.6834 28.6065 21.6191 28.6065Z" fill="#1A743D"></path></g><defs><clipPath id="clip0_11763_9909"><rect width="38.1299" height="51.4517" fill="white" transform="translate(0.617188 0.894531)"></rect></clipPath></defs></svg>