<?xml version="1.0" encoding="UTF-8"?>
<svg width="800px" height="600px" viewBox="0 0 800 600" version="1.1" xmlns="http://www.w3.org/2000/svg" xmlns:xlink="http://www.w3.org/1999/xlink">
    <title>Energia Renovável</title>
    <defs>
        <linearGradient x1="50%" y1="0%" x2="50%" y2="100%" id="linearGradient-sun">
            <stop stop-color="#FFDD4A" offset="0%"></stop>
            <stop stop-color="#FFC107" offset="100%"></stop>
        </linearGradient>
        <linearGradient x1="50%" y1="0%" x2="50%" y2="100%" id="linearGradient-panel">
            <stop stop-color="#86EFAC" offset="0%"></stop>
            <stop stop-color="#22C55E" offset="100%"></stop>
        </linearGradient>
        <linearGradient x1="50%" y1="0%" x2="50%" y2="100%" id="linearGradient-ground">
            <stop stop-color="#22C55E" offset="0%"></stop>
            <stop stop-color="#15803D" offset="100%"></stop>
        </linearGradient>
        <linearGradient x1="50%" y1="0%" x2="50%" y2="100%" id="linearGradient-sky">
            <stop stop-color="#E0F2FE" offset="0%"></stop>
            <stop stop-color="#F0FDFA" offset="100%"></stop>
        </linearGradient>
        <filter x="-15.0%" y="-15.0%" width="130.0%" height="130.0%" filterUnits="objectBoundingBox" id="filter-sun-glow">
            <feGaussianBlur stdDeviation="10" in="SourceGraphic"></feGaussianBlur>
        </filter>
        <filter x="-8.3%" y="-8.3%" width="116.7%" height="116.7%" filterUnits="objectBoundingBox" id="filter-shadow">
            <feGaussianBlur stdDeviation="5" in="SourceGraphic"></feGaussianBlur>
        </filter>
    </defs>
    <!-- Sky Background -->
    <rect width="800" height="500" fill="url(#linearGradient-sky)"/>
    
    <!-- Sun with Glow Effect -->
    <g transform="translate(400, 120)">
        <circle fill="#FFF5D1" opacity="0.6" cx="0" cy="0" r="100" filter="url(#filter-sun-glow)"></circle>
        <circle fill="url(#linearGradient-sun)" cx="0" cy="0" r="70"></circle>
        
        <!-- Sun Rays -->
        <g stroke="#FFC107" stroke-width="4" stroke-linecap="round">
            <line x1="0" y1="-90" x2="0" y2="-120"></line>
            <line x1="63.6" y1="-63.6" x2="84.8" y2="-84.8"></line>
            <line x1="90" y1="0" x2="120" y2="0"></line>
            <line x1="63.6" y1="63.6" x2="84.8" y2="84.8"></line>
            <line x1="0" y1="90" x2="0" y2="120"></line>
            <line x1="-63.6" y1="63.6" x2="-84.8" y2="84.8"></line>
            <line x1="-90" y1="0" x2="-120" y2="0"></line>
            <line x1="-63.6" y1="-63.6" x2="-84.8" y2="-84.8"></line>
        </g>
    </g>
    
    <!-- House with Solar Panels -->
    <g transform="translate(400, 350)">
        <!-- House Shadow -->
        <path d="M-160,120 L0,20 L160,120 L160,250 L-160,250 Z" fill="#15803D" opacity="0.2" transform="translate(0, 10)" filter="url(#filter-shadow)"></path>
        
        <!-- House -->
        <path d="M-160,120 L0,20 L160,120 L160,250 L-160,250 Z" fill="#FFFFFF" stroke="#64748B" stroke-width="2"></path>
        
        <!-- Windows -->
        <rect fill="#E0F2FE" stroke="#64748B" stroke-width="1" x="-100" y="150" width="60" height="60" rx="2"></rect>
        <rect fill="#E0F2FE" stroke="#64748B" stroke-width="1" x="40" y="150" width="60" height="60" rx="2"></rect>
        
        <!-- Door -->
        <rect fill="#475569" x="-20" y="180" width="40" height="70" rx="2"></rect>
        <circle fill="#FCD34D" cx="10" cy="215" r="3"></circle>
        
        <!-- Roof Solar Panels -->
        <g transform="translate(-120, 70)">
            <rect fill="#1E293B" x="0" y="0" width="240" height="10" rx="1"></rect>
            <g transform="translate(10, -30)">
                <rect fill="url(#linearGradient-panel)" stroke="#0F172A" stroke-width="1" x="0" y="0" width="50" height="30" rx="1"></rect>
                <rect fill="url(#linearGradient-panel)" stroke="#0F172A" stroke-width="1" x="60" y="0" width="50" height="30" rx="1"></rect>
                <rect fill="url(#linearGradient-panel)" stroke="#0F172A" stroke-width="1" x="120" y="0" width="50" height="30" rx="1"></rect>
                <rect fill="url(#linearGradient-panel)" stroke="#0F172A" stroke-width="1" x="180" y="0" width="50" height="30" rx="1"></rect>
            </g>
        </g>
    </g>
    
    <!-- Wind Turbine -->
    <g transform="translate(650, 300)">
        <!-- Tower -->
        <rect fill="#94A3B8" x="-5" y="0" width="10" height="150" rx="1"></rect>
        
        <!-- Hub -->
        <circle fill="#64748B" cx="0" cy="0" r="8"></circle>
        
        <!-- Blades -->
        <g fill="#F1F5F9" stroke="#CBD5E1" stroke-width="1">
            <path d="M0,0 L-12,-80 L12,-80 Z" transform="rotate(0)"></path>
            <path d="M0,0 L-12,-80 L12,-80 Z" transform="rotate(120)"></path>
            <path d="M0,0 L-12,-80 L12,-80 Z" transform="rotate(240)"></path>
        </g>
    </g>
    
    <!-- Ground -->
    <path d="M0,450 C100,430 200,460 300,440 C400,420 500,450 600,430 C700,410 800,440 800,440 L800,600 L0,600 Z" fill="url(#linearGradient-ground)"></path>
</svg>
