<?xml version="1.0" encoding="UTF-8"?>
<svg width="800px" height="600px" viewBox="0 0 800 600" version="1.1" xmlns="http://www.w3.org/2000/svg" xmlns:xlink="http://www.w3.org/1999/xlink">
    <title>Energia Renovável</title>
    <defs>
        <linearGradient x1="50%" y1="0%" x2="50%" y2="100%" id="linearGradient-1">
            <stop stop-color="#4ADE80" offset="0%"></stop>
            <stop stop-color="#16A34A" offset="100%"></stop>
        </linearGradient>
        <linearGradient x1="50%" y1="0%" x2="50%" y2="100%" id="linearGradient-2">
            <stop stop-color="#BBFFD0" offset="0%"></stop>
            <stop stop-color="#4ADE80" offset="100%"></stop>
        </linearGradient>
        <linearGradient x1="50%" y1="0%" x2="50%" y2="100%" id="linearGradient-3">
            <stop stop-color="#F0FDF4" offset="0%"></stop>
            <stop stop-color="#DCFCE7" offset="100%"></stop>
        </linearGradient>
    </defs>
    <g id="Page-1" stroke="none" stroke-width="1" fill="none" fill-rule="evenodd">
        <g id="Solar-Energy">
            <circle id="Sun" fill="#FCD34D" cx="400" cy="150" r="80"></circle>
            <g id="Rays" transform="translate(400, 150)" stroke="#FBBF24" stroke-width="6">
                <line x1="0" y1="-100" x2="0" y2="-140" id="Ray-1"></line>
                <line x1="70.7" y1="-70.7" x2="99" y2="-99" id="Ray-2"></line>
                <line x1="100" y1="0" x2="140" y2="0" id="Ray-3"></line>
                <line x1="70.7" y1="70.7" x2="99" y2="99" id="Ray-4"></line>
                <line x1="0" y1="100" x2="0" y2="140" id="Ray-5"></line>
                <line x1="-70.7" y1="70.7" x2="-99" y2="99" id="Ray-6"></line>
                <line x1="-100" y1="0" x2="-140" y2="0" id="Ray-7"></line>
                <line x1="-70.7" y1="-70.7" x2="-99" y2="-99" id="Ray-8"></line>
            </g>
            <g id="House" transform="translate(250, 300)">
                <path d="M0,100 L150,0 L300,100 L300,250 L0,250 Z" id="House-Shape" fill="#FFFFFF" stroke="#64748B" stroke-width="4"></path>
                <rect id="Door" fill="#64748B" x="125" y="170" width="50" height="80"></rect>
                <rect id="Window-Left" fill="#DCE7F9" stroke="#64748B" stroke-width="2" x="50" y="130" width="60" height="60"></rect>
                <rect id="Window-Right" fill="#DCE7F9" stroke="#64748B" stroke-width="2" x="190" y="130" width="60" height="60"></rect>
            </g>
            <g id="Solar-Panels" transform="translate(250, 250)">
                <rect id="Panel-Base" fill="#1E293B" x="0" y="0" width="300" height="20"></rect>
                <g id="Panels" transform="translate(10, -40)">
                    <rect id="Panel-1" fill="url(#linearGradient-2)" stroke="#0F172A" stroke-width="2" x="0" y="0" width="60" height="40"></rect>
                    <rect id="Panel-2" fill="url(#linearGradient-2)" stroke="#0F172A" stroke-width="2" x="70" y="0" width="60" height="40"></rect>
                    <rect id="Panel-3" fill="url(#linearGradient-2)" stroke="#0F172A" stroke-width="2" x="140" y="0" width="60" height="40"></rect>
                    <rect id="Panel-4" fill="url(#linearGradient-2)" stroke="#0F172A" stroke-width="2" x="210" y="0" width="60" height="40"></rect>
                </g>
            </g>
            <g id="Wind-Turbine" transform="translate(600, 350)">
                <rect id="Tower" fill="#94A3B8" x="45" y="100" width="10" height="150"></rect>
                <circle id="Hub" fill="#64748B" cx="50" cy="100" r="10"></circle>
                <g id="Blades" transform="translate(50, 100)" fill="url(#linearGradient-3)">
                    <path d="M0,0 L-15,-100 L15,-100 Z" id="Blade-1" transform="rotate(0)"></path>
                    <path d="M0,0 L-15,-100 L15,-100 Z" id="Blade-2" transform="rotate(120)"></path>
                    <path d="M0,0 L-15,-100 L15,-100 Z" id="Blade-3" transform="rotate(240)"></path>
                </g>
            </g>
            <path id="Ground" d="M0,500 C100,480 200,520 300,490 C400,460 500,510 600,480 C700,450 800,490 800,490 L800,600 L0,600 Z" fill="url(#linearGradient-1)"></path>
        </g>
    </g>
</svg>
