<svg xmlns="http://www.w3.org/2000/svg" width="141" height="60" viewBox="0 0 141 60" fill="none"><rect x="0.5" y="0.5" width="140" height="59" rx="7.5" fill="white"></rect><rect x="0.5" y="0.5" width="140" height="59" rx="7.5" stroke="white"></rect><g clip-path="url(#clip0_13324_21832)"><path fill-rule="evenodd" clip-rule="evenodd" d="M17 26C17 23.7909 18.7909 22 21 22C23.2091 22 25 23.7909 25 26C25 28.2091 23.2091 30 21 30C18.7909 30 17 28.2091 17 26ZM21 24C19.8954 24 19 24.8954 19 26C19 27.1046 19.8954 28 21 28C22.1046 28 23 27.1046 23 26C23 24.8954 22.1046 24 21 24Z" fill="#858585"></path><path d="M15.3995 32.9981C16.9074 31.7056 18.9238 31 21 31V33C19.3632 33 17.8186 33.5587 16.701 34.5166C15.5882 35.4704 15 36.728 15 38H13C13 36.0894 13.8868 34.2947 15.3995 32.9981Z" fill="#858585"></path><path d="M27.375 30H25.375V33H22.375V35H25.375V38H27.375V35H30.375V33H27.375V30Z" fill="#858585"></path></g><path d="M43.176 26V16.2H47.334C49.49 16.2 50.876 17.348 50.876 19.532C50.876 21.688 49.49 22.85 47.334 22.85H44.856V26H43.176ZM44.856 21.394H47.026C48.272 21.394 49.14 20.876 49.14 19.532C49.14 18.188 48.272 17.656 47.026 17.656H44.856V21.394ZM51.5632 26V24.6H52.9772V20.274H51.6752L52.0392 18.916H53.5092C54.0692 18.916 54.3772 19.224 54.3772 19.784V20.372C54.7692 19.238 55.5392 18.846 56.6172 18.846H57.3732V20.554H56.3652C54.9232 20.554 54.6012 20.96 54.6012 22.598V24.6H56.9392V26H51.5632ZM61.7967 26.112C59.4867 26.112 58.1987 24.6 58.1987 22.444C58.1987 20.316 59.4867 18.804 61.7967 18.804C64.1207 18.804 65.4227 20.316 65.4227 22.444C65.4227 24.6 64.1207 26.112 61.7967 26.112ZM59.8507 22.444C59.8507 23.9 60.5507 24.74 61.7827 24.74C63.0287 24.74 63.7707 23.914 63.7707 22.444C63.7707 21.016 63.0287 20.162 61.7827 20.162C60.5507 20.162 59.8507 21.03 59.8507 22.444ZM68.0671 29.15V27.75L70.3771 27.106C71.7911 26.714 71.9731 26.35 71.9731 24.908V24.516C71.4551 25.356 70.6151 25.804 69.5371 25.804C67.5631 25.804 66.4291 24.334 66.4291 22.304C66.4291 20.302 67.5631 18.804 69.5371 18.804C70.6571 18.804 71.5391 19.308 72.0291 20.204L72.2111 18.916H73.5971V24.852C73.5971 26.994 72.9391 27.792 70.8251 28.38L68.0671 29.15ZM68.0811 22.304C68.0811 23.634 68.7811 24.474 69.9571 24.474C71.1471 24.474 71.8471 23.634 71.8471 22.304C71.8471 21.016 71.1471 20.162 69.9571 20.162C68.7811 20.162 68.0811 21.016 68.0811 22.304ZM74.6687 26V24.6H76.0827V20.274H74.7807L75.1447 18.916H76.6147C77.1747 18.916 77.4827 19.224 77.4827 19.784V20.372C77.8747 19.238 78.6447 18.846 79.7227 18.846H80.4787V20.554H79.4707C78.0287 20.554 77.7067 20.96 77.7067 22.598V24.6H80.0447V26H74.6687ZM84.3714 26.112C82.3834 26.112 81.2494 24.614 81.2494 22.444C81.2494 20.302 82.3834 18.804 84.3714 18.804C85.4214 18.804 86.2334 19.224 86.7374 20.022L86.9194 18.916H88.3054V24.474L88.5014 26H86.9894L86.7514 24.852C86.2474 25.678 85.4354 26.112 84.3714 26.112ZM82.9014 22.444C82.9014 23.914 83.6014 24.754 84.7774 24.754C85.9674 24.754 86.6674 23.914 86.6674 22.444C86.6674 21.016 85.9674 20.162 84.7774 20.162C83.6014 20.162 82.9014 21.016 82.9014 22.444ZM90.1607 26V20.428L89.9787 18.916H91.4907L91.6867 19.882C92.0927 19.154 92.7087 18.804 93.5207 18.804C94.4447 18.804 95.0747 19.21 95.4107 20.092C95.8027 19.238 96.5027 18.804 97.3847 18.804C98.9527 18.804 99.5967 19.742 99.5967 21.87V26H97.9587V21.982C97.9587 20.54 97.5527 20.162 96.8527 20.162C96.0967 20.162 95.6907 20.638 95.6907 21.996V26H94.0527V21.982C94.0527 20.54 93.6467 20.162 92.9467 20.162C92.1907 20.162 91.7847 20.652 91.7847 21.996V26H90.1607ZM104.059 26.112C102.071 26.112 100.937 24.614 100.937 22.444C100.937 20.302 102.071 18.804 104.059 18.804C105.109 18.804 105.921 19.224 106.425 20.022L106.607 18.916H107.993V24.474L108.189 26H106.677L106.439 24.852C105.935 25.678 105.123 26.112 104.059 26.112ZM102.589 22.444C102.589 23.914 103.289 24.754 104.465 24.754C105.655 24.754 106.355 23.914 106.355 22.444C106.355 21.016 105.655 20.162 104.465 20.162C103.289 20.162 102.589 21.016 102.589 22.444ZM115.939 26.112C113.965 26.112 112.831 24.614 112.831 22.444C112.831 20.302 113.965 18.804 115.939 18.804C116.947 18.804 117.745 19.196 118.249 19.952V16.186L119.873 15.752V24.488L120.069 26H118.571L118.333 24.824C117.829 25.664 117.003 26.112 115.939 26.112ZM114.469 22.444C114.469 23.914 115.197 24.754 116.359 24.754C117.535 24.754 118.249 23.914 118.249 22.444C118.249 21.016 117.535 20.162 116.359 20.162C115.197 20.162 114.469 21.016 114.469 22.444ZM124.852 26.112C122.5 26.112 121.24 24.6 121.24 22.486C121.24 20.274 122.528 18.804 124.824 18.804C127.12 18.804 128.324 20.232 128.352 22.304C128.352 22.388 128.352 22.668 128.324 22.794H122.906C123.018 24.096 123.746 24.852 124.894 24.852C125.888 24.852 126.476 24.39 126.644 23.816H128.268C127.932 25.314 126.672 26.112 124.852 26.112ZM122.948 21.73H126.574C126.462 20.61 125.86 19.994 124.796 19.994C123.648 19.994 123.102 20.764 122.948 21.73ZM42.56 44V42.558H44.856V35.642H42.56V34.2H48.832V35.642H46.536V42.558H48.832V44H42.56ZM50.061 44V38.428L49.851 36.916H51.377L51.587 37.924C52.063 37.182 52.847 36.804 53.827 36.804C55.731 36.804 56.487 37.966 56.487 40.038V44H54.849V40.206C54.849 38.834 54.345 38.162 53.323 38.162C52.175 38.162 51.699 38.862 51.699 40.276V44H50.061ZM60.9102 44.112C58.9362 44.112 57.8022 42.614 57.8022 40.444C57.8022 38.302 58.9362 36.804 60.9102 36.804C61.9182 36.804 62.7162 37.196 63.2202 37.952V34.186L64.8442 33.752V42.488L65.0402 44H63.5422L63.3042 42.824C62.8002 43.664 61.9742 44.112 60.9102 44.112ZM59.4402 40.444C59.4402 41.914 60.1682 42.754 61.3302 42.754C62.5062 42.754 63.2202 41.914 63.2202 40.444C63.2202 39.016 62.5062 38.162 61.3302 38.162C60.1682 38.162 59.4402 39.016 59.4402 40.444ZM66.2283 44V42.586H68.3843V38.288H66.4523L66.7463 36.916H70.0083V42.586H71.8003V44H66.2283ZM68.1043 34.76C68.1043 34.2 68.4543 33.85 69.1403 33.85C69.8123 33.85 70.1623 34.2 70.1623 34.76C70.1623 35.362 69.8123 35.712 69.1403 35.712C68.4543 35.712 68.1043 35.362 68.1043 34.76ZM75.8227 44.112C73.5547 44.112 72.2807 42.6 72.2807 40.444C72.2807 38.316 73.5547 36.804 75.8227 36.804C77.7967 36.804 79.0007 37.924 79.2947 39.632H77.6427C77.4187 38.708 76.8027 38.162 75.8367 38.162C74.6187 38.162 73.9327 39.016 73.9327 40.444C73.9327 41.9 74.6187 42.754 75.8367 42.754C76.8027 42.754 77.4327 42.222 77.6567 41.27H79.3087C79.0287 42.978 77.8247 44.112 75.8227 44.112ZM83.305 44.112C81.317 44.112 80.183 42.614 80.183 40.444C80.183 38.302 81.317 36.804 83.305 36.804C84.355 36.804 85.167 37.224 85.671 38.022L85.853 36.916H87.239V42.474L87.435 44H85.923L85.685 42.852C85.181 43.678 84.369 44.112 83.305 44.112ZM81.835 40.444C81.835 41.914 82.535 42.754 83.711 42.754C84.901 42.754 85.601 41.914 85.601 40.444C85.601 39.016 84.901 38.162 83.711 38.162C82.535 38.162 81.835 39.016 81.835 40.444ZM92.1196 44.112C89.8516 44.112 88.5776 42.6 88.5776 40.444C88.5776 38.316 89.8516 36.804 92.1196 36.804C94.0936 36.804 95.2976 37.924 95.5916 39.632H93.9396C93.7156 38.708 93.0996 38.162 92.1336 38.162C90.9156 38.162 90.2296 39.016 90.2296 40.444C90.2296 41.9 90.9156 42.754 92.1336 42.754C93.0996 42.754 93.7296 42.222 93.9536 41.27H95.6056C95.3256 42.978 94.1216 44.112 92.1196 44.112ZM91.0696 46.8L91.6436 44.7H92.9456L92.3716 46.8H91.0696ZM99.6019 44.112C97.6139 44.112 96.4799 42.614 96.4799 40.444C96.4799 38.302 97.6139 36.804 99.6019 36.804C100.652 36.804 101.464 37.224 101.968 38.022L102.15 36.916H103.536V42.474L103.732 44H102.22L101.982 42.852C101.478 43.678 100.666 44.112 99.6019 44.112ZM98.0339 35.67C97.8939 34.48 98.3839 33.892 99.3359 33.892C99.8399 33.892 100.162 34.102 100.428 34.312C100.652 34.494 100.848 34.676 101.1 34.676C101.436 34.676 101.506 34.396 101.52 33.976H102.36C102.472 35.166 102.094 35.754 101.212 35.754C100.694 35.754 100.386 35.544 100.12 35.32C99.8959 35.138 99.6859 34.956 99.4059 34.956C98.9999 34.956 98.8739 35.264 98.8459 35.67H98.0339ZM98.1319 40.444C98.1319 41.914 98.8319 42.754 100.008 42.754C101.198 42.754 101.898 41.914 101.898 40.444C101.898 39.016 101.198 38.162 100.008 38.162C98.8319 38.162 98.1319 39.016 98.1319 40.444ZM108.472 44.112C106.162 44.112 104.874 42.6 104.874 40.444C104.874 38.316 106.162 36.804 108.472 36.804C110.796 36.804 112.098 38.316 112.098 40.444C112.098 42.6 110.796 44.112 108.472 44.112ZM106.526 40.444C106.526 41.9 107.226 42.74 108.458 42.74C109.704 42.74 110.446 41.914 110.446 40.444C110.446 39.016 109.704 38.162 108.458 38.162C107.226 38.162 106.526 39.03 106.526 40.444Z" fill="#858585"></path><defs><clipPath id="clip0_13324_21832"><rect x="12" y="20" width="20" height="20" rx="4" fill="white"></rect></clipPath></defs></svg>