<svg xmlns="http://www.w3.org/2000/svg" width="141" height="44" viewBox="0 0 141 44" fill="none"><rect x="0.5" y="0.5" width="140" height="43" rx="7.5" fill="white"></rect><rect x="0.5" y="0.5" width="140" height="43" rx="7.5" stroke="white"></rect><g clip-path="url(#clip0_13324_21840)"><path fill-rule="evenodd" clip-rule="evenodd" d="M27.4568 19.2854C27.4457 19.2861 27.4346 19.2892 27.4243 19.2951C27.42 19.2974 27.4156 19.2994 27.411 19.301L26.2135 19.7001C26.0588 19.7517 25.8938 19.7646 25.7329 19.7378L24.9198 19.6023C24.6761 19.5617 24.4602 19.4221 24.3232 19.2165C24.1575 18.968 23.8785 18.8186 23.5797 18.8186H23.0321C22.7669 18.8186 22.5126 18.924 22.325 19.1115L22.2515 19.1851C22.0289 19.4077 21.9241 19.722 21.9686 20.0336L22.0584 20.6623C22.1078 21.0078 22.3337 21.3025 22.6544 21.44L23.5083 21.806C23.7091 21.892 23.9327 21.91 24.1447 21.857L24.398 21.7936C24.64 21.7331 24.8962 21.7775 25.1037 21.9159C25.35 22.08 25.4979 22.3564 25.4979 22.6524V22.9026C25.4979 23.0578 25.5341 23.2109 25.6035 23.3498L25.9779 24.0987L26.3523 24.8475C26.4218 24.9864 26.4579 25.1395 26.4579 25.2947V25.7817C26.4579 25.9334 26.5182 26.079 26.6255 26.1863C26.6406 26.2014 26.6562 26.2154 26.6724 26.2284C25.8897 27.1673 24.83 27.8792 23.5827 28.219C22.0848 28.627 20.5574 28.4328 19.2579 27.7752V27.5365C19.2579 27.3364 19.3521 27.148 19.5122 27.0279L19.9028 26.7349C20.1011 26.5862 20.2179 26.3528 20.2179 26.1049C20.2179 25.896 20.3008 25.6957 20.4485 25.548L21.0058 24.9907C21.118 24.8785 21.1945 24.7356 21.2256 24.58L21.2893 24.2616C21.3558 23.929 21.1014 23.6186 20.7622 23.6186C20.5734 23.6186 20.3984 23.5196 20.3013 23.3577L20.0292 22.9041C19.8484 22.6029 19.5229 22.4186 19.1717 22.4186H18.3886C18.1859 22.4186 18.0006 22.3041 17.9099 22.1228C17.7466 21.796 17.3111 21.7254 17.0528 21.9837L16.8578 22.1786L16.6708 22.3657C16.4832 22.5533 16.3779 22.8076 16.3779 23.0728V23.1426C16.3779 23.2978 16.414 23.4509 16.4834 23.5898L16.6534 23.9296C16.7824 24.1877 17.0233 24.3717 17.3063 24.4283C17.7433 24.5157 18.0579 24.8994 18.0579 25.3451V26.7861C18.0579 26.858 18.0656 26.9296 18.0809 26.9996C17.1219 26.1974 16.3884 25.0915 16.0395 23.7679C15.8392 23.0079 15.784 22.2458 15.8558 21.5107L16.1379 21.6987L16.204 21.7428C16.4835 21.9291 16.8578 21.7288 16.8578 21.3929C16.8578 21.2813 16.8135 21.1744 16.7347 21.0955L16.5424 20.9033C16.437 20.7979 16.3778 20.655 16.3778 20.506C16.3778 20.2264 16.5834 19.9893 16.8602 19.9498L17.8579 19.8072C17.9899 19.7884 18.1167 19.7434 18.231 19.6748L19.0435 19.1873C19.1842 19.1028 19.302 18.9851 19.3865 18.8443L19.8118 18.1354C19.919 17.9568 20.0865 17.8225 20.284 17.7566L20.4823 17.6905C20.618 17.6453 20.7245 17.5388 20.7697 17.4031C20.858 17.1382 20.6887 16.8571 20.4133 16.8112L19.7104 16.6941C19.5703 16.6707 19.4368 16.6178 19.3188 16.5388L19.2668 16.5041C19.6186 16.3286 19.9915 16.1854 20.383 16.0787C21.83 15.6845 23.3046 15.8524 24.5747 16.4571C24.4703 16.4705 24.3682 16.5035 24.2728 16.5512L23.789 16.7931C23.6501 16.8626 23.497 16.8987 23.3418 16.8987H22.9924C22.7628 16.8987 22.553 17.0284 22.4503 17.2337L22.4088 17.3168C22.2658 17.6028 22.4093 17.9492 22.7127 18.0503C22.8075 18.0819 22.9093 18.0858 23.0063 18.0616L23.5353 17.9293C23.7198 17.8832 23.9137 17.8907 24.0941 17.9508L24.5379 18.0987L25.355 18.2621C25.6002 18.3112 25.8547 18.2608 26.0627 18.1222C26.201 18.0299 26.3191 17.8998 26.3754 17.7556C26.8029 18.1998 27.1696 18.7131 27.4568 19.2854ZM24.0924 30.1529C28.4406 28.9684 31.021 24.4247 29.8559 20.0041C28.6908 15.5836 24.2215 12.9603 19.8733 14.1448C15.5251 15.3292 12.9447 19.873 14.1098 24.2935C15.2749 28.714 19.7443 31.3374 24.0924 30.1529Z" fill="#858585"></path></g><path d="M42.77 27V25.558H45.752V20.392L43.218 21.064V19.594L45.85 18.88L46.074 17.144H47.432V25.558H50.064V27H42.77ZM54.6225 27.14C51.9625 27.14 50.9825 25.264 50.9825 22.086C50.9825 18.908 51.9625 17.06 54.6225 17.06C57.2825 17.06 58.2065 18.908 58.2065 22.086C58.2065 25.264 57.2825 27.14 54.6225 27.14ZM52.7185 22.114C52.7185 24.466 53.1385 25.6 54.6225 25.6C56.0925 25.6 56.4705 24.466 56.4705 22.114C56.4705 19.762 56.0925 18.6 54.6225 18.6C53.1385 18.6 52.7185 19.762 52.7185 22.114ZM63.0171 27.14C60.3571 27.14 59.3771 25.264 59.3771 22.086C59.3771 18.908 60.3571 17.06 63.0171 17.06C65.6771 17.06 66.6011 18.908 66.6011 22.086C66.6011 25.264 65.6771 27.14 63.0171 27.14ZM61.1131 22.114C61.1131 24.466 61.5331 25.6 63.0171 25.6C64.4871 25.6 64.8651 24.466 64.8651 22.114C64.8651 19.762 64.4871 18.6 63.0171 18.6C61.5331 18.6 61.1131 19.762 61.1131 22.114ZM74.3796 27.154C73.0636 27.154 72.1816 26.342 72.1816 24.914C72.1816 23.486 73.0636 22.688 74.3796 22.688C75.6956 22.688 76.5356 23.486 76.5356 24.914C76.5356 26.342 75.6956 27.154 74.3796 27.154ZM67.7716 19.286C67.7716 17.858 68.6536 17.06 69.9696 17.06C71.2856 17.06 72.1256 17.858 72.1256 19.286C72.1256 20.714 71.2856 21.526 69.9696 21.526C68.6536 21.526 67.7716 20.714 67.7716 19.286ZM68.0656 27L71.1036 22.394H71.8036L69.8296 27H68.0656ZM69.0316 19.314C69.0316 20.112 69.3956 20.462 69.9696 20.462C70.5576 20.462 70.8796 20.112 70.8796 19.314C70.8796 18.502 70.5576 18.11 69.9696 18.11C69.3956 18.11 69.0316 18.502 69.0316 19.314ZM72.4756 21.806L74.4496 17.2H76.2136L73.1756 21.806H72.4756ZM73.4416 24.942C73.4416 25.74 73.8056 26.09 74.3796 26.09C74.9676 26.09 75.2896 25.74 75.2896 24.942C75.2896 24.13 74.9676 23.738 74.3796 23.738C73.8056 23.738 73.4416 24.13 73.4416 24.942ZM84.2344 27.112C82.2604 27.112 81.1264 25.614 81.1264 23.444C81.1264 21.302 82.2604 19.804 84.2344 19.804C85.2424 19.804 86.0404 20.196 86.5444 20.952V17.186L88.1684 16.752V25.488L88.3644 27H86.8664L86.6284 25.824C86.1244 26.664 85.2984 27.112 84.2344 27.112ZM82.7644 23.444C82.7644 24.914 83.4924 25.754 84.6544 25.754C85.8304 25.754 86.5444 24.914 86.5444 23.444C86.5444 22.016 85.8304 21.162 84.6544 21.162C83.4924 21.162 82.7644 22.016 82.7644 23.444ZM89.5525 27V25.586H91.7085V21.288H89.7765L90.0705 19.916H93.3325V25.586H95.1245V27H89.5525ZM91.4285 17.76C91.4285 17.2 91.7785 16.85 92.4645 16.85C93.1365 16.85 93.4865 17.2 93.4865 17.76C93.4865 18.362 93.1365 18.712 92.4645 18.712C91.7785 18.712 91.4285 18.362 91.4285 17.76ZM97.1882 30.15V28.75L99.4982 28.106C100.912 27.714 101.094 27.35 101.094 25.908V25.516C100.576 26.356 99.7362 26.804 98.6582 26.804C96.6842 26.804 95.5502 25.334 95.5502 23.304C95.5502 21.302 96.6842 19.804 98.6582 19.804C99.7782 19.804 100.66 20.308 101.15 21.204L101.332 19.916H102.718V25.852C102.718 27.994 102.06 28.792 99.9462 29.38L97.1882 30.15ZM97.2022 23.304C97.2022 24.634 97.9022 25.474 99.0782 25.474C100.268 25.474 100.968 24.634 100.968 23.304C100.968 22.016 100.268 21.162 99.0782 21.162C97.9022 21.162 97.2022 22.016 97.2022 23.304ZM103.949 27V25.586H106.105V21.288H104.173L104.467 19.916H107.729V25.586H109.521V27H103.949ZM105.825 17.76C105.825 17.2 106.175 16.85 106.861 16.85C107.533 16.85 107.883 17.2 107.883 17.76C107.883 18.362 107.533 18.712 106.861 18.712C106.175 18.712 105.825 18.362 105.825 17.76ZM113.637 27C111.789 27 110.879 26.216 110.879 23.99V21.288H109.241L109.605 19.916H110.949L111.327 17.886L112.503 17.592V19.916H114.925L114.561 21.288H112.503V24.06C112.503 25.082 112.741 25.572 113.805 25.572H114.925V27H113.637ZM118.797 27.112C116.809 27.112 115.675 25.614 115.675 23.444C115.675 21.302 116.809 19.804 118.797 19.804C119.847 19.804 120.659 20.224 121.163 21.022L121.345 19.916H122.731V25.474L122.927 27H121.415L121.177 25.852C120.673 26.678 119.861 27.112 118.797 27.112ZM117.327 23.444C117.327 24.914 118.027 25.754 119.203 25.754C120.393 25.754 121.093 24.914 121.093 23.444C121.093 22.016 120.393 21.162 119.203 21.162C118.027 21.162 117.327 22.016 117.327 23.444ZM127.095 27.07C125.247 27.07 124.631 26.09 124.631 24.284V18.334H123.049L123.413 16.99H126.269V24.34C126.269 25.278 126.535 25.656 127.361 25.656H128.075V27.07H127.095Z" fill="#858585"></path><defs><clipPath id="clip0_13324_21840"><rect x="12" y="12" width="20" height="20" rx="4" fill="white"></rect></clipPath></defs></svg>