<svg xmlns="http://www.w3.org/2000/svg" width="167" height="44" viewBox="0 0 167 44" fill="none"><rect x="0.5" y="0.5" width="166" height="43" rx="7.5" fill="white"></rect><rect x="0.5" y="0.5" width="166" height="43" rx="7.5" stroke="white"></rect><g clip-path="url(#clip0_13324_21828)"><g clip-path="url(#clip1_13324_21828)"><path d="M17 23C17 23.55 17.45 24 18.01 24C18.56 24 19 23.56 19 23C19 22.44 18.57 22 18.01 22C17.45 22 17 22.45 17 23Z" fill="#858585"></path><path fill-rule="evenodd" clip-rule="evenodd" d="M19 15C19 16.533 20.1653 17.807 21.6538 17.98H20.46C20.22 17.98 19.96 18 19.69 18.03C18.85 17.36 17.81 16.99 16.7 16.99C15.86 16.99 15.17 17.66 15.17 18.49V20.34C14.73 20.84 14.37 21.41 14.11 22.01C12.91 22.23 12 23.24 12 24.46V25.49C12 26.86 13.16 27.98 14.58 27.98H14.65C14.95 28.43 15.3 28.85 15.69 29.21V30.5C15.69 31.33 16.38 32 17.22 32H19.33C19.99 32 20.56 31.58 20.77 31H22.18C22.39 31.58 22.96 32 23.62 32H25.73V31.99C26.57 31.99 27.26 31.32 27.26 30.49V29.63C27.93 29.12 28.51 28.49 28.95 27.77C29.32 27.17 29.59 26.51 29.74 25.83C31.05 25.47 32.01 24.32 32.01 22.95C32.01 22.15 31.68 21.39 31.08 20.82C30.48 20.26 29.55 20.26 28.96 20.82C28.91 20.87 28.86 20.92 28.82 20.97C27.6 19.17 25.47 17.98 23.1 17.98H22.3462C23.8347 17.807 25 16.533 25 15C25 13.35 23.65 12 22 12C20.35 12 19 13.35 19 15ZM22 14C21.45 14 21 14.45 21 15C21 15.55 21.45 16 22 16C22.55 16 23 15.55 23 15C23 14.45 22.55 14 22 14ZM24.09 30H25.25V28.56L25.72 28.27C26.33 27.89 26.86 27.36 27.23 26.75C27.58 26.18 27.8 25.53 27.86 24.87L27.9 24.42L27.86 24.07C27.64 21.79 25.54 20 23.08 20H20.44C20.17 20 19.84 20.03 19.52 20.09L19.01 20.18L18.64 19.81C18.23 19.4 17.72 19.14 17.15 19.05V21.16L16.86 21.45C16.35 21.97 15.97 22.6 15.76 23.27L15.55 23.98H14.57C14.25 23.98 13.99 24.21 13.99 24.47V25.5C13.99 25.77 14.25 25.99 14.57 25.99H15.8L16.08 26.52C16.39 27.09 16.81 27.59 17.29 27.98L17.67 28.28V30.01L18.84 29.99V28.9L19.93 28.99C20.1 29 20.28 29.01 20.44 29.01H24.08V30.01L24.09 30Z" fill="#858585"></path></g></g><path d="M44.126 27L47.864 17.2H49.908L53.632 27H51.868L51 24.592H46.758L45.89 27H44.126ZM47.29 23.136H50.482L48.886 18.698L47.29 23.136ZM57.1543 27.112C55.1803 27.112 54.0463 25.614 54.0463 23.444C54.0463 21.302 55.1803 19.804 57.1543 19.804C58.1623 19.804 58.9603 20.196 59.4643 20.952V17.186L61.0883 16.752V25.488L61.2843 27H59.7863L59.5483 25.824C59.0443 26.664 58.2183 27.112 57.1543 27.112ZM55.6843 23.444C55.6843 24.914 56.4123 25.754 57.5743 25.754C58.7503 25.754 59.4643 24.914 59.4643 23.444C59.4643 22.016 58.7503 21.162 57.5743 21.162C56.4123 21.162 55.6843 22.016 55.6843 23.444ZM66.0665 27.112C63.7145 27.112 62.4545 25.6 62.4545 23.486C62.4545 21.274 63.7425 19.804 66.0385 19.804C68.3345 19.804 69.5385 21.232 69.5665 23.304C69.5665 23.388 69.5665 23.668 69.5385 23.794H64.1205C64.2325 25.096 64.9605 25.852 66.1085 25.852C67.1025 25.852 67.6905 25.39 67.8585 24.816H69.4825C69.1465 26.314 67.8865 27.112 66.0665 27.112ZM64.1625 22.73H67.7885C67.6765 21.61 67.0745 20.994 66.0105 20.994C64.8625 20.994 64.3165 21.764 64.1625 22.73ZM73.5326 27.112C71.4746 27.112 70.4806 26.23 70.4526 24.718H72.0346C72.0766 25.614 72.7066 25.922 73.6166 25.922C74.4706 25.922 74.9466 25.67 74.9466 25.054C74.9466 24.354 74.3026 24.2 73.3086 23.948C71.7126 23.542 70.7466 23.122 70.7466 21.778C70.7466 20.434 71.8106 19.804 73.4766 19.804C75.4366 19.804 76.2486 20.63 76.2766 21.904H74.7506C74.7366 21.274 74.3026 20.966 73.4486 20.966C72.8046 20.966 72.3426 21.134 72.3426 21.68C72.3426 22.226 72.7626 22.38 73.7146 22.618C75.2126 22.968 76.5426 23.346 76.5426 24.914C76.5426 26.23 75.5766 27.112 73.5326 27.112ZM80.6566 27.112C78.6686 27.112 77.5346 25.614 77.5346 23.444C77.5346 21.302 78.6686 19.804 80.6566 19.804C81.7066 19.804 82.5186 20.224 83.0226 21.022L83.2046 19.916H84.5906V25.474L84.7866 27H83.2746L83.0366 25.852C82.5326 26.678 81.7206 27.112 80.6566 27.112ZM79.0886 18.67C78.9486 17.48 79.4386 16.892 80.3906 16.892C80.8946 16.892 81.2166 17.102 81.4826 17.312C81.7066 17.494 81.9026 17.676 82.1546 17.676C82.4906 17.676 82.5606 17.396 82.5746 16.976H83.4146C83.5266 18.166 83.1486 18.754 82.2666 18.754C81.7486 18.754 81.4406 18.544 81.1746 18.32C80.9506 18.138 80.7406 17.956 80.4606 17.956C80.0546 17.956 79.9286 18.264 79.9006 18.67H79.0886ZM79.1866 23.444C79.1866 24.914 79.8866 25.754 81.0626 25.754C82.2526 25.754 82.9526 24.914 82.9526 23.444C82.9526 22.016 82.2526 21.162 81.0626 21.162C79.8866 21.162 79.1866 22.016 79.1866 23.444ZM89.5271 27.112C87.2171 27.112 85.9291 25.6 85.9291 23.444C85.9291 21.316 87.2171 19.804 89.5271 19.804C91.8511 19.804 93.1531 21.316 93.1531 23.444C93.1531 25.6 91.8511 27.112 89.5271 27.112ZM87.5811 23.444C87.5811 24.9 88.2811 25.74 89.5131 25.74C90.7591 25.74 91.5011 24.914 91.5011 23.444C91.5011 22.016 90.7591 21.162 89.5131 21.162C88.2811 21.162 87.5811 22.03 87.5811 23.444ZM99.2703 30.15V28.75L101.58 28.106C102.994 27.714 103.176 27.35 103.176 25.908V25.516C102.658 26.356 101.818 26.804 100.74 26.804C98.7663 26.804 97.6323 25.334 97.6323 23.304C97.6323 21.302 98.7663 19.804 100.74 19.804C101.86 19.804 102.742 20.308 103.232 21.204L103.414 19.916H104.8V25.852C104.8 27.994 104.142 28.792 102.028 29.38L99.2703 30.15ZM99.2843 23.304C99.2843 24.634 99.9843 25.474 101.16 25.474C102.35 25.474 103.05 24.634 103.05 23.304C103.05 22.016 102.35 21.162 101.16 21.162C99.9843 21.162 99.2843 22.016 99.2843 23.304ZM105.872 27V25.6H107.286V21.274H105.984L106.348 19.916H107.818C108.378 19.916 108.686 20.224 108.686 20.784V21.372C109.078 20.238 109.848 19.846 110.926 19.846H111.682V21.554H110.674C109.232 21.554 108.91 21.96 108.91 23.598V25.6H111.248V27H105.872ZM115.575 27.112C113.587 27.112 112.453 25.614 112.453 23.444C112.453 21.302 113.587 19.804 115.575 19.804C116.625 19.804 117.437 20.224 117.941 21.022L118.123 19.916H119.509V25.474L119.705 27H118.193L117.955 25.852C117.451 26.678 116.639 27.112 115.575 27.112ZM114.105 23.444C114.105 24.914 114.805 25.754 115.981 25.754C117.171 25.754 117.871 24.914 117.871 23.444C117.871 22.016 117.171 21.162 115.981 21.162C114.805 21.162 114.105 22.016 114.105 23.444ZM124.838 27C122.99 27 122.08 26.216 122.08 23.99V21.288H120.442L120.806 19.916H122.15L122.528 17.886L123.704 17.592V19.916H126.126L125.762 21.288H123.704V24.06C123.704 25.082 123.942 25.572 125.006 25.572H126.126V27H124.838ZM130.402 27.112C128.344 27.112 127.252 26.048 127.252 23.822V19.916H128.862V23.836C128.862 25.32 129.506 25.712 130.402 25.712C131.298 25.712 131.942 25.32 131.942 23.836V19.916H133.566V23.822C133.566 26.048 132.46 27.112 130.402 27.112ZM134.646 27V25.586H136.802V21.288H134.87L135.164 19.916H138.426V25.586H140.218V27H134.646ZM136.522 17.76C136.522 17.2 136.872 16.85 137.558 16.85C138.23 16.85 138.58 17.2 138.58 17.76C138.58 18.362 138.23 18.712 137.558 18.712C136.872 18.712 136.522 18.362 136.522 17.76ZM144.334 27C142.486 27 141.576 26.216 141.576 23.99V21.288H139.938L140.302 19.916H141.646L142.024 17.886L143.2 17.592V19.916H145.622L145.258 21.288H143.2V24.06C143.2 25.082 143.438 25.572 144.502 25.572H145.622V27H144.334ZM149.494 27.112C147.506 27.112 146.372 25.614 146.372 23.444C146.372 21.302 147.506 19.804 149.494 19.804C150.544 19.804 151.356 20.224 151.86 21.022L152.042 19.916H153.428V25.474L153.624 27H152.112L151.874 25.852C151.37 26.678 150.558 27.112 149.494 27.112ZM148.024 23.444C148.024 24.914 148.724 25.754 149.9 25.754C151.09 25.754 151.79 24.914 151.79 23.444C151.79 22.016 151.09 21.162 149.9 21.162C148.724 21.162 148.024 22.016 148.024 23.444Z" fill="#858585"></path><defs><clipPath id="clip0_13324_21828"><rect x="12" y="12" width="20" height="20" rx="4" fill="white"></rect></clipPath><clipPath id="clip1_13324_21828"><rect width="20" height="20" fill="white" transform="translate(12 12)"></rect></clipPath></defs></svg>