<svg xmlns="http://www.w3.org/2000/svg" width="238" height="44" viewBox="0 0 238 44" fill="none"><rect x="0.5" y="0.5" width="237" height="43" rx="7.5" fill="white"></rect><rect x="0.5" y="0.5" width="237" height="43" rx="7.5" stroke="white"></rect><g clip-path="url(#clip0_13324_21836)"><path d="M21 25V31L29 19H23V13L15 25H21Z" fill="#858585"></path></g><path d="M43.176 27V17.2H47.334C49.49 17.2 50.876 18.348 50.876 20.532C50.876 22.688 49.49 23.85 47.334 23.85H44.856V27H43.176ZM44.856 22.394H47.026C48.272 22.394 49.14 21.876 49.14 20.532C49.14 19.188 48.272 18.656 47.026 18.656H44.856V22.394ZM55.2342 27.112C52.9242 27.112 51.6362 25.6 51.6362 23.444C51.6362 21.316 52.9242 19.804 55.2342 19.804C57.5582 19.804 58.8602 21.316 58.8602 23.444C58.8602 25.6 57.5582 27.112 55.2342 27.112ZM53.2882 23.444C53.2882 24.9 53.9882 25.74 55.2202 25.74C56.4662 25.74 57.2082 24.914 57.2082 23.444C57.2082 22.016 56.4662 21.162 55.2202 21.162C53.9882 21.162 53.2882 22.03 53.2882 23.444ZM59.6023 27V25.6H61.0163V21.274H59.7143L60.0783 19.916H61.5483C62.1083 19.916 62.4163 20.224 62.4163 20.784V21.372C62.8083 20.238 63.5783 19.846 64.6563 19.846H65.4123V21.554H64.4043C62.9623 21.554 62.6403 21.96 62.6403 23.598V25.6H64.9783V27H59.6023ZM70.4881 27C68.6401 27 67.7301 26.216 67.7301 23.99V21.288H66.0921L66.4561 19.916H67.8001L68.1781 17.886L69.3541 17.592V19.916H71.7761L71.4121 21.288H69.3541V24.06C69.3541 25.082 69.5921 25.572 70.6561 25.572H71.7761V27H70.4881ZM75.6488 27.112C73.6608 27.112 72.5268 25.614 72.5268 23.444C72.5268 21.302 73.6608 19.804 75.6488 19.804C76.6988 19.804 77.5108 20.224 78.0148 21.022L78.1968 19.916H79.5828V25.474L79.7788 27H78.2668L78.0288 25.852C77.5248 26.678 76.7128 27.112 75.6488 27.112ZM74.1788 23.444C74.1788 24.914 74.8788 25.754 76.0548 25.754C77.2448 25.754 77.9448 24.914 77.9448 23.444C77.9448 22.016 77.2448 21.162 76.0548 21.162C74.8788 21.162 74.1788 22.016 74.1788 23.444ZM85.3447 27.112C84.2947 27.112 83.4687 26.664 82.9647 25.838L82.7267 27H81.2147L81.4107 25.488V17.186L83.0487 16.752V20.938C83.5527 20.196 84.3507 19.804 85.3447 19.804C87.3327 19.804 88.4667 21.302 88.4667 23.444C88.4667 25.614 87.3327 27.112 85.3447 27.112ZM83.0487 23.444C83.0487 24.914 83.7487 25.754 84.9247 25.754C86.1007 25.754 86.8147 24.914 86.8147 23.444C86.8147 22.016 86.1007 21.162 84.9247 21.162C83.7487 21.162 83.0487 22.016 83.0487 23.444ZM89.2244 27V25.586H91.3804V21.288H89.4484L89.7424 19.916H93.0044V25.586H94.7964V27H89.2244ZM91.1004 17.76C91.1004 17.2 91.4504 16.85 92.1364 16.85C92.8084 16.85 93.1584 17.2 93.1584 17.76C93.1584 18.362 92.8084 18.712 92.1364 18.712C91.4504 18.712 91.1004 18.362 91.1004 17.76ZM98.562 27.07C96.714 27.07 96.098 26.09 96.098 24.284V18.334H94.516L94.88 16.99H97.736V24.34C97.736 25.278 98.002 25.656 98.828 25.656H99.542V27.07H98.562ZM100.244 27V25.586H102.4V21.288H100.468L100.762 19.916H104.024V25.586H105.816V27H100.244ZM102.12 17.76C102.12 17.2 102.47 16.85 103.156 16.85C103.828 16.85 104.178 17.2 104.178 17.76C104.178 18.362 103.828 18.712 103.156 18.712C102.47 18.712 102.12 18.362 102.12 17.76ZM109.514 27.112C107.54 27.112 106.406 25.614 106.406 23.444C106.406 21.302 107.54 19.804 109.514 19.804C110.522 19.804 111.32 20.196 111.824 20.952V17.186L113.448 16.752V25.488L113.644 27H112.146L111.908 25.824C111.404 26.664 110.578 27.112 109.514 27.112ZM108.044 23.444C108.044 24.914 108.772 25.754 109.934 25.754C111.11 25.754 111.824 24.914 111.824 23.444C111.824 22.016 111.11 21.162 109.934 21.162C108.772 21.162 108.044 22.016 108.044 23.444ZM117.95 27.112C115.962 27.112 114.828 25.614 114.828 23.444C114.828 21.302 115.962 19.804 117.95 19.804C119 19.804 119.812 20.224 120.316 21.022L120.498 19.916H121.884V25.474L122.08 27H120.568L120.33 25.852C119.826 26.678 119.014 27.112 117.95 27.112ZM116.48 23.444C116.48 24.914 117.18 25.754 118.356 25.754C119.546 25.754 120.246 24.914 120.246 23.444C120.246 22.016 119.546 21.162 118.356 21.162C117.18 21.162 116.48 22.016 116.48 23.444ZM126.344 27.112C124.37 27.112 123.236 25.614 123.236 23.444C123.236 21.302 124.37 19.804 126.344 19.804C127.352 19.804 128.15 20.196 128.654 20.952V17.186L130.278 16.752V25.488L130.474 27H128.976L128.738 25.824C128.234 26.664 127.408 27.112 126.344 27.112ZM124.874 23.444C124.874 24.914 125.602 25.754 126.764 25.754C127.94 25.754 128.654 24.914 128.654 23.444C128.654 22.016 127.94 21.162 126.764 21.162C125.602 21.162 124.874 22.016 124.874 23.444ZM135.256 27.112C132.904 27.112 131.644 25.6 131.644 23.486C131.644 21.274 132.932 19.804 135.228 19.804C137.524 19.804 138.728 21.232 138.756 23.304C138.756 23.388 138.756 23.668 138.728 23.794H133.31C133.422 25.096 134.15 25.852 135.298 25.852C136.292 25.852 136.88 25.39 137.048 24.816H138.672C138.336 26.314 137.076 27.112 135.256 27.112ZM133.352 22.73H136.978C136.866 21.61 136.264 20.994 135.2 20.994C134.052 20.994 133.506 21.764 133.352 22.73ZM143.324 27V25.586H145.48V21.288H143.548L143.842 19.916H147.104V25.586H148.896V27H143.324ZM145.2 17.76C145.2 17.2 145.55 16.85 146.236 16.85C146.908 16.85 147.258 17.2 147.258 17.76C147.258 18.362 146.908 18.712 146.236 18.712C145.55 18.712 145.2 18.362 145.2 17.76ZM150.084 27V21.428L149.874 19.916H151.4L151.61 20.924C152.086 20.182 152.87 19.804 153.85 19.804C155.754 19.804 156.51 20.966 156.51 23.038V27H154.872V23.206C154.872 21.834 154.368 21.162 153.346 21.162C152.198 21.162 151.722 21.862 151.722 23.276V27H150.084ZM160.892 27.112C158.834 27.112 157.84 26.23 157.812 24.718H159.394C159.436 25.614 160.066 25.922 160.976 25.922C161.83 25.922 162.306 25.67 162.306 25.054C162.306 24.354 161.662 24.2 160.668 23.948C159.072 23.542 158.106 23.122 158.106 21.778C158.106 20.434 159.17 19.804 160.836 19.804C162.796 19.804 163.608 20.63 163.636 21.904H162.11C162.096 21.274 161.662 20.966 160.808 20.966C160.164 20.966 159.702 21.134 159.702 21.68C159.702 22.226 160.122 22.38 161.074 22.618C162.572 22.968 163.902 23.346 163.902 24.914C163.902 26.23 162.936 27.112 160.892 27.112ZM168.803 27C166.955 27 166.045 26.216 166.045 23.99V21.288H164.407L164.771 19.916H166.115L166.493 17.886L167.669 17.592V19.916H170.091L169.727 21.288H167.669V24.06C167.669 25.082 167.907 25.572 168.971 25.572H170.091V27H168.803ZM173.963 27.112C171.975 27.112 170.841 25.614 170.841 23.444C170.841 21.302 171.975 19.804 173.963 19.804C175.013 19.804 175.825 20.224 176.329 21.022L176.511 19.916H177.897V25.474L178.093 27H176.581L176.343 25.852C175.839 26.678 175.027 27.112 173.963 27.112ZM172.493 23.444C172.493 24.914 173.193 25.754 174.369 25.754C175.559 25.754 176.259 24.914 176.259 23.444C176.259 22.016 175.559 21.162 174.369 21.162C173.193 21.162 172.493 22.016 172.493 23.444ZM179.752 27V21.428L179.542 19.916H181.068L181.278 20.924C181.754 20.182 182.538 19.804 183.518 19.804C185.422 19.804 186.178 20.966 186.178 23.038V27H184.54V23.206C184.54 21.834 184.036 21.162 183.014 21.162C181.866 21.162 181.39 21.862 181.39 23.276V27H179.752ZM191.252 27C189.404 27 188.494 26.216 188.494 23.99V21.288H186.856L187.22 19.916H188.564L188.942 17.886L190.118 17.592V19.916H192.54L192.176 21.288H190.118V24.06C190.118 25.082 190.356 25.572 191.42 25.572H192.54V27H191.252ZM196.412 27.112C194.424 27.112 193.29 25.614 193.29 23.444C193.29 21.302 194.424 19.804 196.412 19.804C197.462 19.804 198.274 20.224 198.778 21.022L198.96 19.916H200.346V25.474L200.542 27H199.03L198.792 25.852C198.288 26.678 197.476 27.112 196.412 27.112ZM194.718 18.922V17.984L197.014 16.906L199.296 17.984V18.922L197.014 17.97L194.718 18.922ZM194.942 23.444C194.942 24.914 195.642 25.754 196.818 25.754C198.008 25.754 198.708 24.914 198.708 23.444C198.708 22.016 198.008 21.162 196.818 21.162C195.642 21.162 194.942 22.016 194.942 23.444ZM202.202 27V21.428L201.992 19.916H203.518L203.728 20.924C204.204 20.182 204.988 19.804 205.968 19.804C207.872 19.804 208.628 20.966 208.628 23.038V27H206.99V23.206C206.99 21.834 206.486 21.162 205.464 21.162C204.316 21.162 203.84 21.862 203.84 23.276V27H202.202ZM213.555 27.112C211.203 27.112 209.943 25.6 209.943 23.486C209.943 21.274 211.231 19.804 213.527 19.804C215.823 19.804 217.027 21.232 217.055 23.304C217.055 23.388 217.055 23.668 217.027 23.794H211.609C211.721 25.096 212.449 25.852 213.597 25.852C214.591 25.852 215.179 25.39 215.347 24.816H216.971C216.635 26.314 215.375 27.112 213.555 27.112ZM211.651 22.73H215.277C215.165 21.61 214.563 20.994 213.499 20.994C212.351 20.994 211.805 21.764 211.651 22.73ZM221.159 27.112C219.171 27.112 218.037 25.614 218.037 23.444C218.037 21.302 219.171 19.804 221.159 19.804C222.209 19.804 223.021 20.224 223.525 21.022L223.707 19.916H225.093V25.474L225.289 27H223.777L223.539 25.852C223.035 26.678 222.223 27.112 221.159 27.112ZM219.689 23.444C219.689 24.914 220.389 25.754 221.565 25.754C222.755 25.754 223.455 24.914 223.455 23.444C223.455 22.016 222.755 21.162 221.565 21.162C220.389 21.162 219.689 22.016 219.689 23.444Z" fill="#858585"></path><defs><clipPath id="clip0_13324_21836"><rect x="12" y="12" width="20" height="20" rx="4" fill="white"></rect></clipPath></defs></svg>